<mxfile host="app.diagrams.net" agent="Mozilla/5.0 (X11; Linux x86_64) AppleWebKit/537.36 (KHTML, like Gecko) Chrome/109.0.0.0 Safari/537.36" version="26.0.5">
  <diagram name="Page-1" id="90a13364-a465-7bf4-72fc-28e22215d7a0">
    <mxGraphModel dx="839" dy="836" grid="1" gridSize="10" guides="1" tooltips="1" connect="1" arrows="1" fold="1" page="1" pageScale="1.5" pageWidth="1169" pageHeight="827" background="none" math="0" shadow="0">
      <root>
        <mxCell id="0" style=";html=1;" />
        <mxCell id="1" style=";html=1;" parent="0" />
        <mxCell id="zFS1pn2A8cmfrVWvFFyQ-52" style="edgeStyle=orthogonalEdgeStyle;rounded=0;orthogonalLoop=1;jettySize=auto;html=1;entryX=0;entryY=0.5;entryDx=0;entryDy=0;exitX=1;exitY=0.5;exitDx=0;exitDy=0;jumpStyle=arc;" parent="1" source="7fQUANpCW0_2PBthWF22-20" target="laC3dYbV331lfGwgBf-x-7" edge="1">
          <mxGeometry relative="1" as="geometry">
            <Array as="points">
              <mxPoint x="1310" y="760" />
              <mxPoint x="1310" y="700" />
            </Array>
            <mxPoint x="1294.9399999999998" y="755" as="sourcePoint" />
          </mxGeometry>
        </mxCell>
        <mxCell id="zFS1pn2A8cmfrVWvFFyQ-49" style="edgeStyle=orthogonalEdgeStyle;rounded=0;orthogonalLoop=1;jettySize=auto;html=1;entryX=0;entryY=0.5;entryDx=0;entryDy=0;jumpStyle=arc;" parent="1" source="q9rqpO51LhmBKndgSOn--5" target="laC3dYbV331lfGwgBf-x-6" edge="1">
          <mxGeometry relative="1" as="geometry" />
        </mxCell>
        <mxCell id="F4LApp7SRapzV72RJLrX-22" value="" style="group" parent="1" vertex="1" connectable="0">
          <mxGeometry x="149.94" y="600" width="140" height="150" as="geometry" />
        </mxCell>
        <mxCell id="0RyyWnerKbfPe0gcl8zv-1" value="Instruction&lt;div&gt;Memory&lt;/div&gt;" style="whiteSpace=wrap;html=1;shadow=1;fontSize=18;fillColor=#f5f5f5;strokeColor=#666666;" parent="F4LApp7SRapzV72RJLrX-22" vertex="1">
          <mxGeometry x="10" width="120" height="150" as="geometry" />
        </mxCell>
        <mxCell id="0RyyWnerKbfPe0gcl8zv-3" value="PC" style="text;html=1;align=left;verticalAlign=middle;whiteSpace=wrap;rounded=0;" parent="F4LApp7SRapzV72RJLrX-22" vertex="1">
          <mxGeometry x="10" y="30" width="20" height="20" as="geometry" />
        </mxCell>
        <mxCell id="0RyyWnerKbfPe0gcl8zv-4" value="IM_RD" style="text;html=1;align=center;verticalAlign=middle;whiteSpace=wrap;rounded=0;" parent="F4LApp7SRapzV72RJLrX-22" vertex="1">
          <mxGeometry x="90" y="30" width="40" height="20" as="geometry" />
        </mxCell>
        <mxCell id="F4LApp7SRapzV72RJLrX-58" value="" style="group" parent="1" vertex="1" connectable="0">
          <mxGeometry x="1349.94" y="640" width="120" height="160" as="geometry" />
        </mxCell>
        <mxCell id="-hvyRLRQOOJ3VwnVLbOB-57" value="ALU" style="whiteSpace=wrap;html=1;shadow=1;fontSize=18;fillColor=#f5f5f5;strokeColor=#666666;resizeWidth=0;comic=0;rotatable=1;treeFolding=0;collapsible=0;dropTarget=0;container=0;noLabel=0;portConstraintRotation=0;gradientColor=none;" parent="F4LApp7SRapzV72RJLrX-58" vertex="1">
          <mxGeometry width="120" height="160" as="geometry" />
        </mxCell>
        <mxCell id="F4LApp7SRapzV72RJLrX-6" value="ALUcontrol" style="text;html=1;align=center;verticalAlign=middle;whiteSpace=wrap;rounded=0;" parent="F4LApp7SRapzV72RJLrX-58" vertex="1">
          <mxGeometry x="30" width="60" height="20" as="geometry" />
        </mxCell>
        <mxCell id="F4LApp7SRapzV72RJLrX-85" value="ALUresult" style="text;html=1;align=right;verticalAlign=middle;whiteSpace=wrap;rounded=0;" parent="F4LApp7SRapzV72RJLrX-58" vertex="1">
          <mxGeometry x="60" y="140" width="60" height="20" as="geometry" />
        </mxCell>
        <mxCell id="laC3dYbV331lfGwgBf-x-6" value="srcA" style="text;html=1;align=left;verticalAlign=middle;whiteSpace=wrap;rounded=0;" parent="F4LApp7SRapzV72RJLrX-58" vertex="1">
          <mxGeometry y="30" width="30" height="20" as="geometry" />
        </mxCell>
        <mxCell id="laC3dYbV331lfGwgBf-x-7" value="srcB" style="text;html=1;align=left;verticalAlign=middle;whiteSpace=wrap;rounded=0;" parent="F4LApp7SRapzV72RJLrX-58" vertex="1">
          <mxGeometry y="50" width="30" height="20" as="geometry" />
        </mxCell>
        <mxCell id="laC3dYbV331lfGwgBf-x-29" value="ALUzero" style="text;html=1;align=right;verticalAlign=middle;whiteSpace=wrap;rounded=0;" parent="F4LApp7SRapzV72RJLrX-58" vertex="1">
          <mxGeometry x="70" y="110" width="50" height="20" as="geometry" />
        </mxCell>
        <mxCell id="F4LApp7SRapzV72RJLrX-61" value="" style="group" parent="1" vertex="1" connectable="0">
          <mxGeometry x="979.94" y="500" width="150" height="160" as="geometry" />
        </mxCell>
        <mxCell id="-hvyRLRQOOJ3VwnVLbOB-56" value="ALU&lt;div&gt;Control&lt;/div&gt;" style="whiteSpace=wrap;html=1;shadow=1;fontSize=18;fillColor=#f5f5f5;strokeColor=#666666;" parent="F4LApp7SRapzV72RJLrX-61" vertex="1">
          <mxGeometry x="10" width="140" height="160" as="geometry" />
        </mxCell>
        <mxCell id="-hvyRLRQOOJ3VwnVLbOB-61" value="ALUop" style="text;html=1;align=left;verticalAlign=middle;whiteSpace=wrap;rounded=0;" parent="F4LApp7SRapzV72RJLrX-61" vertex="1">
          <mxGeometry x="10" y="8.421052631578947" width="40" height="16.842105263157894" as="geometry" />
        </mxCell>
        <mxCell id="-hvyRLRQOOJ3VwnVLbOB-64" value="funct3" style="text;html=1;align=left;verticalAlign=middle;whiteSpace=wrap;rounded=0;" parent="F4LApp7SRapzV72RJLrX-61" vertex="1">
          <mxGeometry x="10" y="30" width="40" height="20.53" as="geometry" />
        </mxCell>
        <mxCell id="-hvyRLRQOOJ3VwnVLbOB-65" value="funct7" style="text;html=1;align=left;verticalAlign=middle;whiteSpace=wrap;rounded=0;" parent="F4LApp7SRapzV72RJLrX-61" vertex="1">
          <mxGeometry x="10" y="50.526315789473685" width="40" height="16.842105263157894" as="geometry" />
        </mxCell>
        <mxCell id="F4LApp7SRapzV72RJLrX-1" value="ALUcontrol" style="text;html=1;align=center;verticalAlign=middle;whiteSpace=wrap;rounded=0;" parent="F4LApp7SRapzV72RJLrX-61" vertex="1">
          <mxGeometry x="80" y="110" width="70" height="20" as="geometry" />
        </mxCell>
        <mxCell id="F4LApp7SRapzV72RJLrX-75" style="edgeStyle=orthogonalEdgeStyle;rounded=0;orthogonalLoop=1;jettySize=auto;html=1;entryX=0;entryY=0.5;entryDx=0;entryDy=0;" parent="1" source="7fQUANpCW0_2PBthWF22-40" target="F4LApp7SRapzV72RJLrX-43" edge="1">
          <mxGeometry relative="1" as="geometry">
            <Array as="points">
              <mxPoint x="870" y="710" />
              <mxPoint x="1010" y="710" />
              <mxPoint x="1010" y="810" />
            </Array>
          </mxGeometry>
        </mxCell>
        <mxCell id="laC3dYbV331lfGwgBf-x-2" style="edgeStyle=orthogonalEdgeStyle;rounded=0;orthogonalLoop=1;jettySize=auto;html=1;entryX=0;entryY=0.5;entryDx=0;entryDy=0;" parent="1" source="7fQUANpCW0_2PBthWF22-46" target="F4LApp7SRapzV72RJLrX-87" edge="1">
          <mxGeometry relative="1" as="geometry">
            <Array as="points">
              <mxPoint x="1500" y="910" />
            </Array>
          </mxGeometry>
        </mxCell>
        <mxCell id="laC3dYbV331lfGwgBf-x-4" value="to RegF" style="edgeLabel;html=1;align=center;verticalAlign=middle;resizable=0;points=[];" parent="laC3dYbV331lfGwgBf-x-2" vertex="1" connectable="0">
          <mxGeometry relative="1" as="geometry">
            <mxPoint as="offset" />
          </mxGeometry>
        </mxCell>
        <mxCell id="MuofbJJSr7D3HssxxxzW-17" style="edgeStyle=orthogonalEdgeStyle;rounded=0;orthogonalLoop=1;jettySize=auto;html=1;entryX=0;entryY=0.5;entryDx=0;entryDy=0;" parent="1" source="7fQUANpCW0_2PBthWF22-30" target="jQQxH6LwXFBK_Qau7PEY-24" edge="1">
          <mxGeometry relative="1" as="geometry">
            <Array as="points">
              <mxPoint x="140" y="280" />
            </Array>
          </mxGeometry>
        </mxCell>
        <mxCell id="s6hKSkpy---ewfnxM8lV-12" style="edgeStyle=orthogonalEdgeStyle;rounded=0;orthogonalLoop=1;jettySize=auto;html=1;entryX=0;entryY=0.5;entryDx=0;entryDy=0;exitX=1;exitY=0.5;exitDx=0;exitDy=0;" parent="1" source="s6hKSkpy---ewfnxM8lV-11" target="jQQxH6LwXFBK_Qau7PEY-28" edge="1">
          <mxGeometry relative="1" as="geometry">
            <Array as="points">
              <mxPoint x="1479.94" y="220" />
              <mxPoint x="1479.94" y="140" />
              <mxPoint x="119.94" y="140" />
              <mxPoint x="119.94" y="240" />
            </Array>
          </mxGeometry>
        </mxCell>
        <mxCell id="laC3dYbV331lfGwgBf-x-32" style="edgeStyle=orthogonalEdgeStyle;rounded=0;orthogonalLoop=1;jettySize=auto;html=1;entryX=0;entryY=0.5;entryDx=0;entryDy=0;jumpStyle=arc;" parent="1" source="laC3dYbV331lfGwgBf-x-29" target="laC3dYbV331lfGwgBf-x-28" edge="1">
          <mxGeometry relative="1" as="geometry">
            <Array as="points">
              <mxPoint x="1539.94" y="760" />
              <mxPoint x="1539.94" y="380" />
              <mxPoint x="1339.94" y="380" />
              <mxPoint x="1339.94" y="200" />
            </Array>
          </mxGeometry>
        </mxCell>
        <mxCell id="q9rqpO51LhmBKndgSOn--22" style="edgeStyle=orthogonalEdgeStyle;rounded=0;orthogonalLoop=1;jettySize=auto;html=1;entryX=0;entryY=0.5;entryDx=0;entryDy=0;" parent="1" source="-hvyRLRQOOJ3VwnVLbOB-8" target="JqTOLJbfiFGYhZ1s0W8t-8" edge="1">
          <mxGeometry relative="1" as="geometry">
            <Array as="points">
              <mxPoint x="640" y="670" />
              <mxPoint x="640" y="750" />
            </Array>
          </mxGeometry>
        </mxCell>
        <mxCell id="q9rqpO51LhmBKndgSOn--23" style="edgeStyle=orthogonalEdgeStyle;rounded=0;orthogonalLoop=1;jettySize=auto;html=1;entryX=0;entryY=0.5;entryDx=0;entryDy=0;" parent="1" source="-hvyRLRQOOJ3VwnVLbOB-9" target="JqTOLJbfiFGYhZ1s0W8t-10" edge="1">
          <mxGeometry relative="1" as="geometry">
            <Array as="points">
              <mxPoint x="630" y="700" />
              <mxPoint x="630" y="793" />
            </Array>
          </mxGeometry>
        </mxCell>
        <mxCell id="q9rqpO51LhmBKndgSOn--27" value="" style="group" parent="1" vertex="1" connectable="0">
          <mxGeometry x="179.94" y="200" width="120" height="260" as="geometry" />
        </mxCell>
        <mxCell id="jQQxH6LwXFBK_Qau7PEY-23" value="PC_Control&lt;div&gt;Unit&lt;/div&gt;" style="whiteSpace=wrap;html=1;shadow=1;fontSize=18;fillColor=#f5f5f5;strokeColor=#666666;" parent="q9rqpO51LhmBKndgSOn--27" vertex="1">
          <mxGeometry width="120" height="260" as="geometry" />
        </mxCell>
        <mxCell id="jQQxH6LwXFBK_Qau7PEY-24" value="PC" style="text;html=1;align=left;verticalAlign=middle;whiteSpace=wrap;rounded=0;" parent="q9rqpO51LhmBKndgSOn--27" vertex="1">
          <mxGeometry y="70" width="20" height="20" as="geometry" />
        </mxCell>
        <mxCell id="jQQxH6LwXFBK_Qau7PEY-25" value="Jump" style="text;html=1;align=left;verticalAlign=middle;whiteSpace=wrap;rounded=0;" parent="q9rqpO51LhmBKndgSOn--27" vertex="1">
          <mxGeometry y="10" width="40" height="20" as="geometry" />
        </mxCell>
        <mxCell id="jQQxH6LwXFBK_Qau7PEY-26" value="J_Target" style="text;html=1;align=left;verticalAlign=middle;whiteSpace=wrap;rounded=0;" parent="q9rqpO51LhmBKndgSOn--27" vertex="1">
          <mxGeometry y="190" width="50" height="20" as="geometry" />
        </mxCell>
        <mxCell id="jQQxH6LwXFBK_Qau7PEY-27" value="B_Target" style="text;html=1;align=left;verticalAlign=middle;whiteSpace=wrap;rounded=0;" parent="q9rqpO51LhmBKndgSOn--27" vertex="1">
          <mxGeometry y="170" width="60" height="20" as="geometry" />
        </mxCell>
        <mxCell id="jQQxH6LwXFBK_Qau7PEY-28" value="BTaken" style="text;html=1;align=left;verticalAlign=middle;whiteSpace=wrap;rounded=0;" parent="q9rqpO51LhmBKndgSOn--27" vertex="1">
          <mxGeometry y="30" width="50" height="20" as="geometry" />
        </mxCell>
        <mxCell id="jQQxH6LwXFBK_Qau7PEY-29" value="NextPC" style="text;html=1;align=right;verticalAlign=middle;whiteSpace=wrap;rounded=0;" parent="q9rqpO51LhmBKndgSOn--27" vertex="1">
          <mxGeometry x="96" y="30" width="24" height="20" as="geometry" />
        </mxCell>
        <mxCell id="q9rqpO51LhmBKndgSOn--36" style="edgeStyle=orthogonalEdgeStyle;rounded=0;orthogonalLoop=1;jettySize=auto;html=1;entryX=0.5;entryY=0;entryDx=0;entryDy=0;" parent="1" source="7fQUANpCW0_2PBthWF22-39" target="F4LApp7SRapzV72RJLrX-42" edge="1">
          <mxGeometry relative="1" as="geometry">
            <Array as="points">
              <mxPoint x="890" y="350" />
              <mxPoint x="890" y="700" />
              <mxPoint x="1060" y="700" />
            </Array>
          </mxGeometry>
        </mxCell>
        <mxCell id="zFS1pn2A8cmfrVWvFFyQ-2" style="edgeStyle=orthogonalEdgeStyle;rounded=0;orthogonalLoop=1;jettySize=auto;html=1;entryX=0.384;entryY=0.014;entryDx=0;entryDy=0;entryPerimeter=0;" parent="1" source="-hvyRLRQOOJ3VwnVLbOB-48" target="zFS1pn2A8cmfrVWvFFyQ-1" edge="1">
          <mxGeometry relative="1" as="geometry">
            <Array as="points">
              <mxPoint x="770" y="580" />
              <mxPoint x="744" y="580" />
            </Array>
          </mxGeometry>
        </mxCell>
        <mxCell id="zFS1pn2A8cmfrVWvFFyQ-11" style="edgeStyle=orthogonalEdgeStyle;rounded=0;orthogonalLoop=1;jettySize=auto;html=1;entryX=0;entryY=0.5;entryDx=0;entryDy=0;exitX=1;exitY=0.5;exitDx=0;exitDy=0;" parent="1" source="-hvyRLRQOOJ3VwnVLbOB-6" target="-hvyRLRQOOJ3VwnVLbOB-49" edge="1">
          <mxGeometry relative="1" as="geometry">
            <mxPoint x="619.94" y="250" as="targetPoint" />
            <Array as="points">
              <mxPoint x="600" y="540" />
              <mxPoint x="600" y="234" />
            </Array>
            <mxPoint x="509.94" y="540" as="sourcePoint" />
          </mxGeometry>
        </mxCell>
        <mxCell id="zFS1pn2A8cmfrVWvFFyQ-12" style="edgeStyle=orthogonalEdgeStyle;rounded=0;orthogonalLoop=1;jettySize=auto;html=1;entryX=0;entryY=0.5;entryDx=0;entryDy=0;exitX=1;exitY=0.5;exitDx=0;exitDy=0;" parent="1" source="s6hKSkpy---ewfnxM8lV-1" target="jQQxH6LwXFBK_Qau7PEY-25" edge="1">
          <mxGeometry relative="1" as="geometry">
            <Array as="points">
              <mxPoint x="800" y="200" />
              <mxPoint x="840" y="200" />
              <mxPoint x="840" y="160" />
              <mxPoint x="160" y="160" />
              <mxPoint x="160" y="220" />
            </Array>
          </mxGeometry>
        </mxCell>
        <mxCell id="zFS1pn2A8cmfrVWvFFyQ-14" style="edgeStyle=orthogonalEdgeStyle;rounded=0;orthogonalLoop=1;jettySize=auto;html=1;entryX=0;entryY=0.5;entryDx=0;entryDy=0;jumpStyle=arc;" parent="1" source="laC3dYbV331lfGwgBf-x-40" target="laC3dYbV331lfGwgBf-x-42" edge="1">
          <mxGeometry relative="1" as="geometry">
            <Array as="points">
              <mxPoint x="1010" y="223" />
              <mxPoint x="1010" y="223" />
            </Array>
          </mxGeometry>
        </mxCell>
        <mxCell id="zFS1pn2A8cmfrVWvFFyQ-16" style="edgeStyle=orthogonalEdgeStyle;rounded=0;orthogonalLoop=1;jettySize=auto;html=1;entryX=0.082;entryY=0.4;entryDx=0;entryDy=0;entryPerimeter=0;exitX=1;exitY=0.5;exitDx=0;exitDy=0;jumpStyle=arc;" parent="1" source="laC3dYbV331lfGwgBf-x-37" target="-hvyRLRQOOJ3VwnVLbOB-43" edge="1">
          <mxGeometry relative="1" as="geometry">
            <mxPoint x="1619.94" y="890" as="targetPoint" />
            <Array as="points">
              <mxPoint x="1619.94" y="400" />
            </Array>
          </mxGeometry>
        </mxCell>
        <mxCell id="zFS1pn2A8cmfrVWvFFyQ-18" style="edgeStyle=orthogonalEdgeStyle;rounded=0;orthogonalLoop=1;jettySize=auto;html=1;entryX=0;entryY=0.5;entryDx=0;entryDy=0;" parent="1" source="0RyyWnerKbfPe0gcl8zv-4" target="-hvyRLRQOOJ3VwnVLbOB-2" edge="1">
          <mxGeometry relative="1" as="geometry" />
        </mxCell>
        <mxCell id="zFS1pn2A8cmfrVWvFFyQ-27" style="edgeStyle=orthogonalEdgeStyle;rounded=0;orthogonalLoop=1;jettySize=auto;html=1;entryX=0;entryY=0.5;entryDx=0;entryDy=0;" parent="1" target="0RyyWnerKbfPe0gcl8zv-3" edge="1">
          <mxGeometry relative="1" as="geometry">
            <mxPoint x="140" y="640" as="sourcePoint" />
          </mxGeometry>
        </mxCell>
        <mxCell id="zFS1pn2A8cmfrVWvFFyQ-30" style="edgeStyle=orthogonalEdgeStyle;rounded=0;orthogonalLoop=1;jettySize=auto;html=1;entryX=0;entryY=0.5;entryDx=0;entryDy=0;" parent="1" source="7fQUANpCW0_2PBthWF22-51" target="s6hKSkpy---ewfnxM8lV-30" edge="1">
          <mxGeometry relative="1" as="geometry">
            <Array as="points" />
          </mxGeometry>
        </mxCell>
        <mxCell id="zFS1pn2A8cmfrVWvFFyQ-33" value="" style="group" parent="1" vertex="1" connectable="0">
          <mxGeometry x="179.94" y="810" width="90" height="120" as="geometry" />
        </mxCell>
        <mxCell id="s6hKSkpy---ewfnxM8lV-29" value="PCplus4" style="whiteSpace=wrap;html=1;shadow=1;fontSize=18;fillColor=#f5f5f5;strokeColor=#666666;" parent="zFS1pn2A8cmfrVWvFFyQ-33" vertex="1">
          <mxGeometry x="20" width="70" height="120" as="geometry" />
        </mxCell>
        <mxCell id="s6hKSkpy---ewfnxM8lV-30" value="PC" style="text;html=1;align=left;verticalAlign=middle;whiteSpace=wrap;rounded=0;" parent="zFS1pn2A8cmfrVWvFFyQ-33" vertex="1">
          <mxGeometry x="20" y="20" width="20" height="20" as="geometry" />
        </mxCell>
        <mxCell id="s6hKSkpy---ewfnxM8lV-31" value="PC+4" style="text;html=1;align=right;verticalAlign=middle;whiteSpace=wrap;rounded=0;" parent="zFS1pn2A8cmfrVWvFFyQ-33" vertex="1">
          <mxGeometry x="60" y="20" width="30" height="20" as="geometry" />
        </mxCell>
        <mxCell id="s6hKSkpy---ewfnxM8lV-32" value="4" style="text;html=1;align=left;verticalAlign=middle;whiteSpace=wrap;rounded=0;" parent="zFS1pn2A8cmfrVWvFFyQ-33" vertex="1">
          <mxGeometry x="20" y="100" width="10" height="20" as="geometry" />
        </mxCell>
        <mxCell id="zFS1pn2A8cmfrVWvFFyQ-32" value="" style="endArrow=classic;html=1;rounded=0;entryX=0;entryY=0.5;entryDx=0;entryDy=0;" parent="zFS1pn2A8cmfrVWvFFyQ-33" target="s6hKSkpy---ewfnxM8lV-32" edge="1">
          <mxGeometry width="50" height="50" relative="1" as="geometry">
            <mxPoint x="-20" y="110" as="sourcePoint" />
            <mxPoint x="220" y="-20" as="targetPoint" />
          </mxGeometry>
        </mxCell>
        <mxCell id="zFS1pn2A8cmfrVWvFFyQ-35" style="edgeStyle=orthogonalEdgeStyle;rounded=0;orthogonalLoop=1;jettySize=auto;html=1;entryX=0;entryY=0.5;entryDx=0;entryDy=0;jumpStyle=arc;jumpSize=10;" parent="1" source="jQQxH6LwXFBK_Qau7PEY-29" target="0RyyWnerKbfPe0gcl8zv-7" edge="1">
          <mxGeometry relative="1" as="geometry">
            <Array as="points">
              <mxPoint x="339.94" y="240" />
              <mxPoint x="339.94" y="500" />
              <mxPoint x="19.939999999999998" y="500" />
              <mxPoint x="19.939999999999998" y="640" />
            </Array>
          </mxGeometry>
        </mxCell>
        <mxCell id="zFS1pn2A8cmfrVWvFFyQ-38" style="edgeStyle=orthogonalEdgeStyle;rounded=0;orthogonalLoop=1;jettySize=auto;html=1;entryX=0;entryY=0.5;entryDx=0;entryDy=0;" parent="1" source="-hvyRLRQOOJ3VwnVLbOB-7" target="JqTOLJbfiFGYhZ1s0W8t-5" edge="1">
          <mxGeometry relative="1" as="geometry">
            <Array as="points">
              <mxPoint x="660" y="640" />
              <mxPoint x="660" y="721" />
            </Array>
          </mxGeometry>
        </mxCell>
        <mxCell id="zFS1pn2A8cmfrVWvFFyQ-41" style="edgeStyle=orthogonalEdgeStyle;rounded=0;orthogonalLoop=1;jettySize=auto;html=1;entryX=0;entryY=0.5;entryDx=0;entryDy=0;exitX=0.588;exitY=0.714;exitDx=0;exitDy=0;exitPerimeter=0;" parent="1" source="7fQUANpCW0_2PBthWF22-49" target="F4LApp7SRapzV72RJLrX-40" edge="1">
          <mxGeometry relative="1" as="geometry">
            <Array as="points">
              <mxPoint x="1420" y="820" />
              <mxPoint x="1420" y="1000" />
              <mxPoint x="920" y="1000" />
              <mxPoint x="920" y="940" />
            </Array>
          </mxGeometry>
        </mxCell>
        <mxCell id="zFS1pn2A8cmfrVWvFFyQ-75" value="to DM" style="edgeLabel;html=1;align=center;verticalAlign=middle;resizable=0;points=[];" parent="zFS1pn2A8cmfrVWvFFyQ-41" vertex="1" connectable="0">
          <mxGeometry x="-0.9337" y="-2" relative="1" as="geometry">
            <mxPoint x="-18" y="170" as="offset" />
          </mxGeometry>
        </mxCell>
        <mxCell id="zFS1pn2A8cmfrVWvFFyQ-69" value="" style="group" parent="1" vertex="1" connectable="0">
          <mxGeometry x="1199.9450000000002" y="646.665" width="20.00499999999988" height="66.67000000000007" as="geometry" />
        </mxCell>
        <mxCell id="q9rqpO51LhmBKndgSOn--5" value="" style="shape=trapezoid;perimeter=trapezoidPerimeter;whiteSpace=wrap;html=1;fixedSize=1;shadow=1;strokeColor=#666666;align=center;verticalAlign=middle;fontFamily=Helvetica;fontSize=18;fontColor=default;fillColor=#f5f5f5;rotation=90;" parent="zFS1pn2A8cmfrVWvFFyQ-69" vertex="1">
          <mxGeometry x="-23.335000000000036" y="23.335000000000036" width="66.67" height="20" as="geometry" />
        </mxCell>
        <mxCell id="7fQUANpCW0_2PBthWF22-13" value="&lt;font style=&quot;font-size: 9px;&quot;&gt;00&lt;/font&gt;" style="text;html=1;align=left;verticalAlign=middle;whiteSpace=wrap;rounded=0;" parent="zFS1pn2A8cmfrVWvFFyQ-69" vertex="1">
          <mxGeometry x="0.004999999999881766" y="-0.0049999999999954525" width="20" height="30" as="geometry" />
        </mxCell>
        <mxCell id="7fQUANpCW0_2PBthWF22-14" value="&lt;font style=&quot;font-size: 9px;&quot;&gt;01&lt;/font&gt;" style="text;html=1;align=left;verticalAlign=middle;whiteSpace=wrap;rounded=0;" parent="zFS1pn2A8cmfrVWvFFyQ-69" vertex="1">
          <mxGeometry x="0.004999999999881766" y="18.335000000000036" width="20" height="30" as="geometry" />
        </mxCell>
        <mxCell id="7fQUANpCW0_2PBthWF22-15" value="&lt;font style=&quot;font-size: 9px;&quot;&gt;10&lt;/font&gt;" style="text;html=1;align=left;verticalAlign=middle;whiteSpace=wrap;rounded=0;" parent="zFS1pn2A8cmfrVWvFFyQ-69" vertex="1">
          <mxGeometry x="0.004999999999881766" y="36.675000000000004" width="20" height="30" as="geometry" />
        </mxCell>
        <mxCell id="zFS1pn2A8cmfrVWvFFyQ-78" style="edgeStyle=orthogonalEdgeStyle;rounded=0;orthogonalLoop=1;jettySize=auto;html=1;entryX=0.5;entryY=0;entryDx=0;entryDy=0;jumpStyle=arc;" parent="1" source="F4LApp7SRapzV72RJLrX-1" target="F4LApp7SRapzV72RJLrX-6" edge="1">
          <mxGeometry relative="1" as="geometry" />
        </mxCell>
        <mxCell id="-hvyRLRQOOJ3VwnVLbOB-44" value="&lt;div&gt;&lt;br&gt;&lt;/div&gt;" style="text;html=1;align=center;verticalAlign=middle;whiteSpace=wrap;rounded=0;fontFamily=Helvetica;fontSize=18;fontColor=default;container=0;" parent="1" vertex="1">
          <mxGeometry x="1559.94" y="950" width="60" height="30" as="geometry" />
        </mxCell>
        <mxCell id="-hvyRLRQOOJ3VwnVLbOB-43" value="" style="shape=trapezoid;perimeter=trapezoidPerimeter;whiteSpace=wrap;html=1;fixedSize=1;shadow=1;strokeColor=#666666;align=center;verticalAlign=middle;fontFamily=Helvetica;fontSize=18;fontColor=default;fillColor=#f5f5f5;rotation=90;container=0;" parent="1" vertex="1">
          <mxGeometry x="1539.94" y="900" width="140" height="100" as="geometry" />
        </mxCell>
        <mxCell id="F4LApp7SRapzV72RJLrX-87" value="&lt;span style=&quot;font-size: 18px;&quot;&gt;00&lt;/span&gt;" style="text;html=1;align=left;verticalAlign=middle;whiteSpace=wrap;rounded=0;container=0;" parent="1" vertex="1">
          <mxGeometry x="1559.94" y="900" width="30" height="20" as="geometry" />
        </mxCell>
        <mxCell id="F4LApp7SRapzV72RJLrX-88" value="&lt;span style=&quot;font-size: 18px;&quot;&gt;01&lt;/span&gt;" style="text;html=1;align=left;verticalAlign=middle;whiteSpace=wrap;rounded=0;container=0;" parent="1" vertex="1">
          <mxGeometry x="1559.94" y="930" width="35" height="20" as="geometry" />
        </mxCell>
        <mxCell id="F4LApp7SRapzV72RJLrX-89" value="&lt;span style=&quot;font-size: 18px;&quot;&gt;10&lt;/span&gt;" style="text;html=1;align=left;verticalAlign=middle;whiteSpace=wrap;rounded=0;container=0;" parent="1" vertex="1">
          <mxGeometry x="1559.94" y="960" width="30" height="20" as="geometry" />
        </mxCell>
        <mxCell id="F4LApp7SRapzV72RJLrX-91" value="&lt;font style=&quot;font-size: 10px;&quot;&gt;ALUresult&lt;/font&gt;" style="text;html=1;align=left;verticalAlign=middle;whiteSpace=wrap;rounded=0;container=0;" parent="1" vertex="1">
          <mxGeometry x="1589.94" y="905" width="50" height="10" as="geometry" />
        </mxCell>
        <mxCell id="F4LApp7SRapzV72RJLrX-92" value="&lt;font style=&quot;font-size: 10px;&quot;&gt;Data Memory&lt;/font&gt;" style="text;html=1;align=left;verticalAlign=middle;whiteSpace=wrap;rounded=0;container=0;" parent="1" vertex="1">
          <mxGeometry x="1589.94" y="930" width="70" height="20" as="geometry" />
        </mxCell>
        <mxCell id="F4LApp7SRapzV72RJLrX-93" value="&lt;span style=&quot;font-size: 10px;&quot;&gt;CSR_RD&lt;/span&gt;" style="text;html=1;align=left;verticalAlign=middle;whiteSpace=wrap;rounded=0;container=0;" parent="1" vertex="1">
          <mxGeometry x="1589.94" y="960" width="70" height="20" as="geometry" />
        </mxCell>
        <mxCell id="-nASIVS76yrskM6xYjcV-2" value="&lt;h1 style=&quot;margin-top: 0px;&quot;&gt;KHWL_RV32I37&lt;/h1&gt;&lt;p&gt;Fixed the Datapath error between RF-DM-BE_Logic.&lt;br&gt;&lt;span style=&quot;background-color: transparent;&quot;&gt;CSR added. Signal Optimized.&amp;nbsp;&lt;br&gt;&lt;/span&gt;&lt;span style=&quot;background-color: transparent;&quot;&gt;Debug Instr.s on going&lt;br&gt;&lt;/span&gt;&lt;span style=&quot;background-color: transparent; text-align: right;&quot;&gt;2024.12.15(日) ~ 2025.01.12(日)&lt;/span&gt;&lt;/p&gt;&lt;p&gt;&lt;/p&gt;&lt;p&gt;&lt;/p&gt;" style="text;html=1;whiteSpace=wrap;overflow=hidden;rounded=0;" parent="1" vertex="1">
          <mxGeometry x="1540" y="1097" width="209" height="139" as="geometry" />
        </mxCell>
        <mxCell id="-nASIVS76yrskM6xYjcV-3" value="&lt;font style=&quot;font-size: 14px;&quot;&gt;&lt;b style=&quot;&quot;&gt;강현우&lt;/b&gt;, KHWL2025&lt;/font&gt;" style="text;html=1;align=center;verticalAlign=middle;whiteSpace=wrap;rounded=0;" parent="1" vertex="1">
          <mxGeometry x="1539.94" y="1220" width="120" height="20" as="geometry" />
        </mxCell>
        <mxCell id="wTCf3CvT70fc92s2WAtQ-12" value="" style="group" parent="1" vertex="1" connectable="0">
          <mxGeometry x="359.94" y="420" width="200" height="40" as="geometry" />
        </mxCell>
        <mxCell id="wTCf3CvT70fc92s2WAtQ-9" value="&lt;div&gt;J_Aligner&lt;/div&gt;" style="whiteSpace=wrap;html=1;shadow=1;fontSize=18;fillColor=#f5f5f5;strokeColor=#666666;" parent="wTCf3CvT70fc92s2WAtQ-12" vertex="1">
          <mxGeometry width="200" height="40" as="geometry" />
        </mxCell>
        <mxCell id="wTCf3CvT70fc92s2WAtQ-10" value="J_Target" style="text;html=1;align=left;verticalAlign=middle;whiteSpace=wrap;rounded=0;" parent="wTCf3CvT70fc92s2WAtQ-12" vertex="1">
          <mxGeometry y="10" width="50" height="20" as="geometry" />
        </mxCell>
        <mxCell id="wTCf3CvT70fc92s2WAtQ-11" value="ALUresult" style="text;html=1;align=right;verticalAlign=middle;whiteSpace=wrap;rounded=0;" parent="wTCf3CvT70fc92s2WAtQ-12" vertex="1">
          <mxGeometry x="140" y="10" width="60" height="20" as="geometry" />
        </mxCell>
        <mxCell id="wTCf3CvT70fc92s2WAtQ-15" style="edgeStyle=orthogonalEdgeStyle;rounded=0;orthogonalLoop=1;jettySize=auto;html=1;entryX=0;entryY=0.5;entryDx=0;entryDy=0;jumpStyle=arc;jumpSize=10;" parent="1" source="wTCf3CvT70fc92s2WAtQ-10" target="jQQxH6LwXFBK_Qau7PEY-26" edge="1">
          <mxGeometry relative="1" as="geometry">
            <Array as="points">
              <mxPoint x="319.94" y="440" />
              <mxPoint x="319.94" y="470" />
              <mxPoint x="159.94" y="470" />
              <mxPoint x="159.94" y="400" />
            </Array>
          </mxGeometry>
        </mxCell>
        <mxCell id="wTCf3CvT70fc92s2WAtQ-16" value="" style="group" parent="1" vertex="1" connectable="0">
          <mxGeometry x="339.94" y="520" width="150" height="240" as="geometry" />
        </mxCell>
        <mxCell id="-hvyRLRQOOJ3VwnVLbOB-1" value="Instruction&lt;div&gt;Decoder&lt;/div&gt;" style="whiteSpace=wrap;html=1;shadow=1;fontSize=18;fillColor=#f5f5f5;strokeColor=#666666;" parent="wTCf3CvT70fc92s2WAtQ-16" vertex="1">
          <mxGeometry width="150" height="240" as="geometry" />
        </mxCell>
        <mxCell id="-hvyRLRQOOJ3VwnVLbOB-2" value="IM_RD" style="text;html=1;align=center;verticalAlign=middle;whiteSpace=wrap;rounded=0;" parent="wTCf3CvT70fc92s2WAtQ-16" vertex="1">
          <mxGeometry y="110" width="40" height="20" as="geometry" />
        </mxCell>
        <mxCell id="-hvyRLRQOOJ3VwnVLbOB-6" value="opcode" style="text;html=1;align=right;verticalAlign=middle;whiteSpace=wrap;rounded=0;" parent="wTCf3CvT70fc92s2WAtQ-16" vertex="1">
          <mxGeometry x="100" y="10" width="50" height="20" as="geometry" />
        </mxCell>
        <mxCell id="-hvyRLRQOOJ3VwnVLbOB-7" value="&lt;div style=&quot;&quot;&gt;&lt;span style=&quot;background-color: transparent;&quot;&gt;rs1&lt;/span&gt;&lt;/div&gt;" style="text;html=1;align=right;verticalAlign=middle;whiteSpace=wrap;rounded=0;" parent="wTCf3CvT70fc92s2WAtQ-16" vertex="1">
          <mxGeometry x="130" y="110" width="20" height="20" as="geometry" />
        </mxCell>
        <mxCell id="-hvyRLRQOOJ3VwnVLbOB-8" value="rs2" style="text;html=1;align=right;verticalAlign=middle;whiteSpace=wrap;rounded=0;" parent="wTCf3CvT70fc92s2WAtQ-16" vertex="1">
          <mxGeometry x="130" y="140" width="20" height="20" as="geometry" />
        </mxCell>
        <mxCell id="-hvyRLRQOOJ3VwnVLbOB-9" value="rd" style="text;html=1;align=right;verticalAlign=middle;whiteSpace=wrap;rounded=0;" parent="wTCf3CvT70fc92s2WAtQ-16" vertex="1">
          <mxGeometry x="130" y="170" width="20" height="20" as="geometry" />
        </mxCell>
        <mxCell id="-hvyRLRQOOJ3VwnVLbOB-10" value="imm" style="text;html=1;align=right;verticalAlign=middle;whiteSpace=wrap;rounded=0;" parent="wTCf3CvT70fc92s2WAtQ-16" vertex="1">
          <mxGeometry x="120" y="210" width="30" height="20" as="geometry" />
        </mxCell>
        <mxCell id="-hvyRLRQOOJ3VwnVLbOB-11" value="funct3" style="text;html=1;align=right;verticalAlign=middle;whiteSpace=wrap;rounded=0;" parent="wTCf3CvT70fc92s2WAtQ-16" vertex="1">
          <mxGeometry x="110" y="40" width="40" height="20" as="geometry" />
        </mxCell>
        <mxCell id="-hvyRLRQOOJ3VwnVLbOB-12" value="funct7" style="text;html=1;align=right;verticalAlign=middle;whiteSpace=wrap;rounded=0;" parent="wTCf3CvT70fc92s2WAtQ-16" vertex="1">
          <mxGeometry x="110" y="60" width="40" height="20" as="geometry" />
        </mxCell>
        <mxCell id="QWSBbdvPpNymhQ5q6x3e-30" value="CSR_addr" style="text;html=1;align=left;verticalAlign=middle;whiteSpace=wrap;rounded=0;container=0;" parent="wTCf3CvT70fc92s2WAtQ-16" vertex="1">
          <mxGeometry x="90" y="190" width="60" height="20" as="geometry" />
        </mxCell>
        <mxCell id="wTCf3CvT70fc92s2WAtQ-32" style="edgeStyle=orthogonalEdgeStyle;rounded=0;orthogonalLoop=1;jettySize=auto;html=1;entryX=0.5;entryY=0;entryDx=0;entryDy=0;" parent="1" source="-hvyRLRQOOJ3VwnVLbOB-10" target="laC3dYbV331lfGwgBf-x-16" edge="1">
          <mxGeometry relative="1" as="geometry" />
        </mxCell>
        <mxCell id="wTCf3CvT70fc92s2WAtQ-34" value="" style="group" parent="1" vertex="1" connectable="0">
          <mxGeometry x="439.94" y="880" width="160" height="80" as="geometry" />
        </mxCell>
        <mxCell id="laC3dYbV331lfGwgBf-x-15" value="&lt;div&gt;Immediate Generator&lt;/div&gt;" style="whiteSpace=wrap;html=1;shadow=1;fontSize=18;fillColor=#f5f5f5;strokeColor=#666666;" parent="wTCf3CvT70fc92s2WAtQ-34" vertex="1">
          <mxGeometry width="160" height="80" as="geometry" />
        </mxCell>
        <mxCell id="laC3dYbV331lfGwgBf-x-16" value="imm" style="text;html=1;align=center;verticalAlign=middle;whiteSpace=wrap;rounded=0;" parent="wTCf3CvT70fc92s2WAtQ-34" vertex="1">
          <mxGeometry x="60" width="40" height="20" as="geometry" />
        </mxCell>
        <mxCell id="laC3dYbV331lfGwgBf-x-17" value="ex-imm" style="text;html=1;align=right;verticalAlign=middle;whiteSpace=wrap;rounded=0;" parent="wTCf3CvT70fc92s2WAtQ-34" vertex="1">
          <mxGeometry x="57.78" y="60" width="44.44" height="20" as="geometry" />
        </mxCell>
        <mxCell id="wTCf3CvT70fc92s2WAtQ-35" value="" style="group" parent="1" vertex="1" connectable="0">
          <mxGeometry x="1359.94" y="160" width="100" height="200" as="geometry" />
        </mxCell>
        <mxCell id="laC3dYbV331lfGwgBf-x-27" value="Branch&lt;div&gt;Logic&lt;/div&gt;" style="whiteSpace=wrap;html=1;shadow=1;fontSize=18;fillColor=#f5f5f5;strokeColor=#666666;" parent="wTCf3CvT70fc92s2WAtQ-35" vertex="1">
          <mxGeometry width="100" height="200" as="geometry" />
        </mxCell>
        <mxCell id="laC3dYbV331lfGwgBf-x-28" value="ALUzero" style="text;html=1;align=left;verticalAlign=middle;whiteSpace=wrap;rounded=0;" parent="wTCf3CvT70fc92s2WAtQ-35" vertex="1">
          <mxGeometry y="30" width="50" height="20" as="geometry" />
        </mxCell>
        <mxCell id="laC3dYbV331lfGwgBf-x-42" value="Branch" style="text;html=1;align=left;verticalAlign=middle;whiteSpace=wrap;rounded=0;" parent="wTCf3CvT70fc92s2WAtQ-35" vertex="1">
          <mxGeometry y="50" width="40" height="26.67" as="geometry" />
        </mxCell>
        <mxCell id="s6hKSkpy---ewfnxM8lV-11" value="BTaken" style="text;html=1;align=right;verticalAlign=middle;whiteSpace=wrap;rounded=0;" parent="wTCf3CvT70fc92s2WAtQ-35" vertex="1">
          <mxGeometry x="64.28999999999996" y="50" width="35.71" height="20" as="geometry" />
        </mxCell>
        <mxCell id="q9rqpO51LhmBKndgSOn--34" value="funct3" style="text;html=1;align=left;verticalAlign=middle;whiteSpace=wrap;rounded=0;" parent="wTCf3CvT70fc92s2WAtQ-35" vertex="1">
          <mxGeometry y="170" width="40" height="20" as="geometry" />
        </mxCell>
        <mxCell id="wTCf3CvT70fc92s2WAtQ-38" value="" style="group" parent="1" vertex="1" connectable="0">
          <mxGeometry x="639.94" y="180" width="160" height="280" as="geometry" />
        </mxCell>
        <mxCell id="-hvyRLRQOOJ3VwnVLbOB-47" value="Control&lt;div&gt;Unit&lt;/div&gt;" style="whiteSpace=wrap;html=1;shadow=1;fontSize=18;fillColor=#f5f5f5;strokeColor=#666666;" parent="wTCf3CvT70fc92s2WAtQ-38" vertex="1">
          <mxGeometry width="160" height="280" as="geometry" />
        </mxCell>
        <mxCell id="-hvyRLRQOOJ3VwnVLbOB-48" value="RegWrite" style="text;html=1;align=center;verticalAlign=middle;whiteSpace=wrap;rounded=0;" parent="wTCf3CvT70fc92s2WAtQ-38" vertex="1">
          <mxGeometry x="105" y="258.46153846153845" width="50" height="21.538461538461537" as="geometry" />
        </mxCell>
        <mxCell id="-hvyRLRQOOJ3VwnVLbOB-49" value="opcode" style="text;html=1;align=left;verticalAlign=middle;whiteSpace=wrap;rounded=0;" parent="wTCf3CvT70fc92s2WAtQ-38" vertex="1">
          <mxGeometry y="43.07692307692307" width="50" height="21.538461538461537" as="geometry" />
        </mxCell>
        <mxCell id="-hvyRLRQOOJ3VwnVLbOB-59" value="ALUop" style="text;html=1;align=center;verticalAlign=middle;whiteSpace=wrap;rounded=0;" parent="wTCf3CvT70fc92s2WAtQ-38" vertex="1">
          <mxGeometry x="120" y="59.995384615384616" width="40" height="21.538461538461537" as="geometry" />
        </mxCell>
        <mxCell id="F4LApp7SRapzV72RJLrX-56" value="MemRead" style="text;html=1;align=center;verticalAlign=middle;whiteSpace=wrap;rounded=0;" parent="wTCf3CvT70fc92s2WAtQ-38" vertex="1">
          <mxGeometry x="100" y="177.70000000000002" width="60" height="26.92" as="geometry" />
        </mxCell>
        <mxCell id="F4LApp7SRapzV72RJLrX-73" value="MemWrite" style="text;html=1;align=center;verticalAlign=middle;whiteSpace=wrap;rounded=0;" parent="wTCf3CvT70fc92s2WAtQ-38" vertex="1">
          <mxGeometry x="100" y="161.53846153846152" width="60" height="21.538461538461537" as="geometry" />
        </mxCell>
        <mxCell id="laC3dYbV331lfGwgBf-x-33" value="ALUsrcB" style="text;html=1;align=center;verticalAlign=middle;whiteSpace=wrap;rounded=0;" parent="wTCf3CvT70fc92s2WAtQ-38" vertex="1">
          <mxGeometry x="110" y="118.46" width="50" height="21.54" as="geometry" />
        </mxCell>
        <mxCell id="laC3dYbV331lfGwgBf-x-37" value="Mem2Reg" style="text;html=1;align=center;verticalAlign=middle;whiteSpace=wrap;rounded=0;" parent="wTCf3CvT70fc92s2WAtQ-38" vertex="1">
          <mxGeometry x="100" y="204.6153846153846" width="60" height="21.538461538461537" as="geometry" />
        </mxCell>
        <mxCell id="laC3dYbV331lfGwgBf-x-40" value="Branch" style="text;html=1;align=center;verticalAlign=middle;whiteSpace=wrap;rounded=0;" parent="wTCf3CvT70fc92s2WAtQ-38" vertex="1">
          <mxGeometry x="120" y="32.30769230769231" width="40" height="21.538461538461537" as="geometry" />
        </mxCell>
        <mxCell id="s6hKSkpy---ewfnxM8lV-1" value="Jump" style="text;html=1;align=center;verticalAlign=middle;whiteSpace=wrap;rounded=0;" parent="wTCf3CvT70fc92s2WAtQ-38" vertex="1">
          <mxGeometry x="120" y="8.459230769230768" width="40" height="21.538461538461537" as="geometry" />
        </mxCell>
        <mxCell id="q9rqpO51LhmBKndgSOn--2" value="ALUsrcA" style="text;html=1;align=center;verticalAlign=middle;whiteSpace=wrap;rounded=0;" parent="wTCf3CvT70fc92s2WAtQ-38" vertex="1">
          <mxGeometry x="110" y="96.92307692307692" width="50" height="21.538461538461537" as="geometry" />
        </mxCell>
        <mxCell id="jGIxOcGe_lyUybQSf8QV-1" value="funct3" style="text;html=1;align=left;verticalAlign=middle;whiteSpace=wrap;rounded=0;" parent="wTCf3CvT70fc92s2WAtQ-38" vertex="1">
          <mxGeometry y="74.81384615384619" width="40" height="22.10923076923077" as="geometry" />
        </mxCell>
        <mxCell id="jGIxOcGe_lyUybQSf8QV-4" value="CSRop" style="text;html=1;align=center;verticalAlign=middle;whiteSpace=wrap;rounded=0;" parent="wTCf3CvT70fc92s2WAtQ-38" vertex="1">
          <mxGeometry x="120" y="74.8153846153846" width="40" height="21.538461538461537" as="geometry" />
        </mxCell>
        <mxCell id="QWSBbdvPpNymhQ5q6x3e-9" value="CSRenable" style="text;html=1;align=right;verticalAlign=middle;whiteSpace=wrap;rounded=0;container=0;" parent="wTCf3CvT70fc92s2WAtQ-38" vertex="1">
          <mxGeometry x="90" y="230" width="70" height="20" as="geometry" />
        </mxCell>
        <mxCell id="LOUQa-txSwxVZWsO9tRF-1" value="CSRsrc" style="text;html=1;align=center;verticalAlign=middle;whiteSpace=wrap;rounded=0;" vertex="1" parent="wTCf3CvT70fc92s2WAtQ-38">
          <mxGeometry x="110" y="140" width="50" height="21.54" as="geometry" />
        </mxCell>
        <mxCell id="BtpwSkirMHUlfhhFMKDF-12" value="" style="group" parent="1" vertex="1" connectable="0">
          <mxGeometry x="1569.94" y="80" width="110" height="200" as="geometry" />
        </mxCell>
        <mxCell id="BtpwSkirMHUlfhhFMKDF-2" value="BE_Logic" style="whiteSpace=wrap;html=1;shadow=1;fontSize=18;fillColor=#f5f5f5;strokeColor=#666666;" parent="BtpwSkirMHUlfhhFMKDF-12" vertex="1">
          <mxGeometry width="110" height="200" as="geometry" />
        </mxCell>
        <mxCell id="BtpwSkirMHUlfhhFMKDF-3" value="MemWrite" style="text;html=1;align=left;verticalAlign=middle;whiteSpace=wrap;rounded=0;" parent="BtpwSkirMHUlfhhFMKDF-12" vertex="1">
          <mxGeometry x="0.01" y="10" width="60" height="20" as="geometry" />
        </mxCell>
        <mxCell id="BtpwSkirMHUlfhhFMKDF-4" value="MemRead" style="text;html=1;align=left;verticalAlign=middle;whiteSpace=wrap;rounded=0;" parent="BtpwSkirMHUlfhhFMKDF-12" vertex="1">
          <mxGeometry y="33.33" width="60" height="16.67" as="geometry" />
        </mxCell>
        <mxCell id="BtpwSkirMHUlfhhFMKDF-5" value="BERF_WD" style="text;html=1;align=right;verticalAlign=middle;whiteSpace=wrap;rounded=0;" parent="BtpwSkirMHUlfhhFMKDF-12" vertex="1">
          <mxGeometry x="50" y="50" width="60" height="20" as="geometry" />
        </mxCell>
        <mxCell id="BtpwSkirMHUlfhhFMKDF-6" value="funct3" style="text;html=1;align=left;verticalAlign=middle;whiteSpace=wrap;rounded=0;" parent="BtpwSkirMHUlfhhFMKDF-12" vertex="1">
          <mxGeometry y="170" width="40" height="20" as="geometry" />
        </mxCell>
        <mxCell id="BtpwSkirMHUlfhhFMKDF-7" value="DM2RF_RD" style="text;html=1;align=left;verticalAlign=middle;whiteSpace=wrap;rounded=0;" parent="BtpwSkirMHUlfhhFMKDF-12" vertex="1">
          <mxGeometry y="56.67" width="50" height="26.67" as="geometry" />
        </mxCell>
        <mxCell id="BtpwSkirMHUlfhhFMKDF-8" value="RF2DM_RD" style="text;html=1;align=left;verticalAlign=middle;whiteSpace=wrap;rounded=0;" parent="BtpwSkirMHUlfhhFMKDF-12" vertex="1">
          <mxGeometry x="0.01" y="110" width="69.99" height="26.67" as="geometry" />
        </mxCell>
        <mxCell id="BtpwSkirMHUlfhhFMKDF-9" value="address" style="text;html=1;align=left;verticalAlign=middle;whiteSpace=wrap;rounded=0;" parent="BtpwSkirMHUlfhhFMKDF-12" vertex="1">
          <mxGeometry y="140" width="60" height="26.67" as="geometry" />
        </mxCell>
        <mxCell id="BtpwSkirMHUlfhhFMKDF-10" value="BEDM_WD" style="text;html=1;align=right;verticalAlign=middle;whiteSpace=wrap;rounded=0;" parent="BtpwSkirMHUlfhhFMKDF-12" vertex="1">
          <mxGeometry x="40" y="130" width="70" height="20" as="geometry" />
        </mxCell>
        <mxCell id="BtpwSkirMHUlfhhFMKDF-11" value="WriteMask" style="text;html=1;align=right;verticalAlign=middle;whiteSpace=wrap;rounded=0;" parent="BtpwSkirMHUlfhhFMKDF-12" vertex="1">
          <mxGeometry x="50" y="170" width="60" height="20" as="geometry" />
        </mxCell>
        <mxCell id="BtpwSkirMHUlfhhFMKDF-15" style="edgeStyle=orthogonalEdgeStyle;rounded=0;orthogonalLoop=1;jettySize=auto;html=1;entryX=0;entryY=0.5;entryDx=0;entryDy=0;jumpStyle=arc;jumpSize=7;" parent="1" target="BtpwSkirMHUlfhhFMKDF-9" edge="1">
          <mxGeometry relative="1" as="geometry">
            <Array as="points">
              <mxPoint x="1529.94" y="790" />
              <mxPoint x="1529.94" y="233" />
            </Array>
            <mxPoint x="1500" y="790" as="sourcePoint" />
          </mxGeometry>
        </mxCell>
        <mxCell id="BtpwSkirMHUlfhhFMKDF-20" style="edgeStyle=orthogonalEdgeStyle;rounded=0;orthogonalLoop=1;jettySize=auto;html=1;jumpStyle=arc;" parent="1" edge="1">
          <mxGeometry relative="1" as="geometry">
            <mxPoint x="1569.94" y="120" as="targetPoint" />
            <Array as="points">
              <mxPoint x="800" y="370" />
              <mxPoint x="1170" y="370" />
              <mxPoint x="1170" y="120" />
            </Array>
            <mxPoint x="800" y="370" as="sourcePoint" />
          </mxGeometry>
        </mxCell>
        <mxCell id="BtpwSkirMHUlfhhFMKDF-21" style="edgeStyle=orthogonalEdgeStyle;rounded=0;orthogonalLoop=1;jettySize=auto;html=1;entryX=0;entryY=0.5;entryDx=0;entryDy=0;jumpStyle=arc;" parent="1" source="F4LApp7SRapzV72RJLrX-73" target="BtpwSkirMHUlfhhFMKDF-3" edge="1">
          <mxGeometry relative="1" as="geometry">
            <Array as="points">
              <mxPoint x="1185" y="350" />
              <mxPoint x="1185" y="100" />
            </Array>
          </mxGeometry>
        </mxCell>
        <mxCell id="BtpwSkirMHUlfhhFMKDF-23" style="edgeStyle=orthogonalEdgeStyle;rounded=0;orthogonalLoop=1;jettySize=auto;html=1;entryX=0;entryY=0.5;entryDx=0;entryDy=0;exitX=1;exitY=0.5;exitDx=0;exitDy=0;jumpStyle=arc;" parent="1" source="BtpwSkirMHUlfhhFMKDF-10" target="F4LApp7SRapzV72RJLrX-41" edge="1">
          <mxGeometry relative="1" as="geometry">
            <Array as="points">
              <mxPoint x="1700" y="220" />
              <mxPoint x="1700" y="1100" />
              <mxPoint x="910" y="1100" />
              <mxPoint x="910" y="920" />
            </Array>
          </mxGeometry>
        </mxCell>
        <mxCell id="BtpwSkirMHUlfhhFMKDF-24" style="edgeStyle=orthogonalEdgeStyle;rounded=0;orthogonalLoop=1;jettySize=auto;html=1;entryX=0;entryY=0.5;entryDx=0;entryDy=0;exitX=1;exitY=0.5;exitDx=0;exitDy=0;jumpStyle=arc;" parent="1" source="BtpwSkirMHUlfhhFMKDF-5" target="F4LApp7SRapzV72RJLrX-88" edge="1">
          <mxGeometry relative="1" as="geometry">
            <Array as="points">
              <mxPoint x="1690" y="140" />
              <mxPoint x="1690" y="1040" />
              <mxPoint x="1540" y="1040" />
              <mxPoint x="1540" y="940" />
            </Array>
          </mxGeometry>
        </mxCell>
        <mxCell id="BtpwSkirMHUlfhhFMKDF-26" style="edgeStyle=orthogonalEdgeStyle;rounded=0;orthogonalLoop=1;jettySize=auto;html=1;entryX=0;entryY=0.5;entryDx=0;entryDy=0;exitX=1;exitY=0.5;exitDx=0;exitDy=0;jumpStyle=arc;" parent="1" source="BtpwSkirMHUlfhhFMKDF-11" target="BtpwSkirMHUlfhhFMKDF-25" edge="1">
          <mxGeometry relative="1" as="geometry">
            <Array as="points">
              <mxPoint x="1710" y="260" />
              <mxPoint x="1710" y="1090" />
              <mxPoint x="880" y="1090" />
              <mxPoint x="880" y="900" />
            </Array>
          </mxGeometry>
        </mxCell>
        <mxCell id="THBCQazlCQPBuUSzStiJ-1" value="" style="group" parent="1" vertex="1" connectable="0">
          <mxGeometry x="39.94" y="520" width="80" height="230" as="geometry" />
        </mxCell>
        <mxCell id="3a17f1ce550125da-8" value="Program&lt;div&gt;Counter&lt;/div&gt;" style="whiteSpace=wrap;html=1;shadow=1;fontSize=18;fillColor=#f5f5f5;strokeColor=#666666;" parent="THBCQazlCQPBuUSzStiJ-1" vertex="1">
          <mxGeometry y="80" width="80" height="150" as="geometry" />
        </mxCell>
        <mxCell id="0RyyWnerKbfPe0gcl8zv-7" value="NextPC" style="text;html=1;align=left;verticalAlign=middle;whiteSpace=wrap;rounded=0;" parent="THBCQazlCQPBuUSzStiJ-1" vertex="1">
          <mxGeometry y="110" width="50" height="20" as="geometry" />
        </mxCell>
        <mxCell id="0RyyWnerKbfPe0gcl8zv-8" value="PC" style="text;html=1;align=right;verticalAlign=middle;whiteSpace=wrap;rounded=0;" parent="THBCQazlCQPBuUSzStiJ-1" vertex="1">
          <mxGeometry x="60" y="110" width="20" height="20" as="geometry" />
        </mxCell>
        <mxCell id="zFS1pn2A8cmfrVWvFFyQ-53" value="" style="group" parent="THBCQazlCQPBuUSzStiJ-1" vertex="1" connectable="0">
          <mxGeometry x="10" width="20" height="90" as="geometry" />
        </mxCell>
        <mxCell id="0RyyWnerKbfPe0gcl8zv-11" value="" style="triangle;whiteSpace=wrap;html=1;rotation=90;" parent="zFS1pn2A8cmfrVWvFFyQ-53" vertex="1">
          <mxGeometry x="5" y="75" width="10" height="20" as="geometry" />
        </mxCell>
        <mxCell id="zFS1pn2A8cmfrVWvFFyQ-21" value="" style="edgeStyle=none;orthogonalLoop=1;jettySize=auto;html=1;rounded=0;" parent="zFS1pn2A8cmfrVWvFFyQ-53" edge="1">
          <mxGeometry width="100" relative="1" as="geometry">
            <mxPoint x="10" as="sourcePoint" />
            <mxPoint x="10" y="80" as="targetPoint" />
            <Array as="points" />
          </mxGeometry>
        </mxCell>
        <mxCell id="zFS1pn2A8cmfrVWvFFyQ-25" value="CLK" style="edgeLabel;html=1;align=center;verticalAlign=middle;resizable=0;points=[];" parent="zFS1pn2A8cmfrVWvFFyQ-21" vertex="1" connectable="0">
          <mxGeometry x="-0.0019" relative="1" as="geometry">
            <mxPoint as="offset" />
          </mxGeometry>
        </mxCell>
        <mxCell id="zFS1pn2A8cmfrVWvFFyQ-64" value="" style="group" parent="THBCQazlCQPBuUSzStiJ-1" vertex="1" connectable="0">
          <mxGeometry x="39.900000000000006" width="30.099999999999994" height="80" as="geometry" />
        </mxCell>
        <mxCell id="0RyyWnerKbfPe0gcl8zv-13" value="" style="edgeStyle=elbowEdgeStyle;rounded=0;html=1;startArrow=none;startFill=0;jettySize=auto;orthogonalLoop=1;fontSize=18;elbow=vertical;entryX=0.75;entryY=0;entryDx=0;entryDy=0;" parent="zFS1pn2A8cmfrVWvFFyQ-64" edge="1">
          <mxGeometry relative="1" as="geometry">
            <Array as="points">
              <mxPoint y="40" />
            </Array>
            <mxPoint as="sourcePoint" />
            <mxPoint x="5.684341886080802e-14" y="80" as="targetPoint" />
          </mxGeometry>
        </mxCell>
        <mxCell id="zFS1pn2A8cmfrVWvFFyQ-26" value="RST" style="text;html=1;align=center;verticalAlign=middle;resizable=1;points=[];autosize=1;strokeColor=none;fillColor=none;movable=1;rotatable=1;deletable=1;editable=1;locked=0;connectable=1;" parent="zFS1pn2A8cmfrVWvFFyQ-64" vertex="1">
          <mxGeometry x="0.09999999999999432" y="50" width="30" height="20" as="geometry" />
        </mxCell>
        <mxCell id="jGIxOcGe_lyUybQSf8QV-7" value="" style="group" parent="1" vertex="1" connectable="0">
          <mxGeometry x="1030" y="700" width="129.95000000000005" height="260" as="geometry" />
        </mxCell>
        <mxCell id="3a17f1ce550125da-4" value="Data&lt;div&gt;Memory&lt;/div&gt;" style="whiteSpace=wrap;html=1;shadow=1;fontSize=18;fillColor=#f5f5f5;strokeColor=#666666;container=0;" parent="jGIxOcGe_lyUybQSf8QV-7" vertex="1">
          <mxGeometry y="60" width="120" height="200" as="geometry" />
        </mxCell>
        <mxCell id="F4LApp7SRapzV72RJLrX-40" value="Address" style="text;html=1;align=center;verticalAlign=middle;whiteSpace=wrap;rounded=0;container=0;" parent="jGIxOcGe_lyUybQSf8QV-7" vertex="1">
          <mxGeometry y="230" width="50" height="20" as="geometry" />
        </mxCell>
        <mxCell id="F4LApp7SRapzV72RJLrX-41" value="DM_WD" style="text;html=1;align=left;verticalAlign=middle;whiteSpace=wrap;rounded=0;container=0;" parent="jGIxOcGe_lyUybQSf8QV-7" vertex="1">
          <mxGeometry y="210" width="60" height="20" as="geometry" />
        </mxCell>
        <mxCell id="F4LApp7SRapzV72RJLrX-42" value="MemWrite" style="text;html=1;align=center;verticalAlign=middle;whiteSpace=wrap;rounded=0;container=0;" parent="jGIxOcGe_lyUybQSf8QV-7" vertex="1">
          <mxGeometry y="60" width="60" height="20" as="geometry" />
        </mxCell>
        <mxCell id="F4LApp7SRapzV72RJLrX-43" value="MemRead" style="text;html=1;align=center;verticalAlign=middle;whiteSpace=wrap;rounded=0;container=0;" parent="jGIxOcGe_lyUybQSf8QV-7" vertex="1">
          <mxGeometry y="100" width="60" height="20" as="geometry" />
        </mxCell>
        <mxCell id="F4LApp7SRapzV72RJLrX-44" value="DM_RD" style="text;html=1;align=center;verticalAlign=middle;whiteSpace=wrap;rounded=0;container=0;" parent="jGIxOcGe_lyUybQSf8QV-7" vertex="1">
          <mxGeometry x="70" y="210" width="50" height="20" as="geometry" />
        </mxCell>
        <mxCell id="BtpwSkirMHUlfhhFMKDF-25" value="ByteMask" style="text;html=1;align=left;verticalAlign=middle;whiteSpace=wrap;rounded=0;container=0;" parent="jGIxOcGe_lyUybQSf8QV-7" vertex="1">
          <mxGeometry y="190" width="70" height="20" as="geometry" />
        </mxCell>
        <mxCell id="zFS1pn2A8cmfrVWvFFyQ-59" value="" style="triangle;whiteSpace=wrap;html=1;rotation=90;container=0;" parent="jGIxOcGe_lyUybQSf8QV-7" vertex="1">
          <mxGeometry x="75" y="55" width="10" height="20" as="geometry" />
        </mxCell>
        <mxCell id="zFS1pn2A8cmfrVWvFFyQ-60" value="" style="edgeStyle=none;orthogonalLoop=1;jettySize=auto;html=1;rounded=0;" parent="jGIxOcGe_lyUybQSf8QV-7" edge="1">
          <mxGeometry width="100" relative="1" as="geometry">
            <mxPoint x="80" as="sourcePoint" />
            <mxPoint x="80" y="60" as="targetPoint" />
            <Array as="points" />
          </mxGeometry>
        </mxCell>
        <mxCell id="zFS1pn2A8cmfrVWvFFyQ-61" value="CLK" style="edgeLabel;html=1;align=center;verticalAlign=middle;resizable=0;points=[];container=0;" parent="zFS1pn2A8cmfrVWvFFyQ-60" vertex="1" connectable="0">
          <mxGeometry x="-0.0019" relative="1" as="geometry">
            <mxPoint y="-16" as="offset" />
          </mxGeometry>
        </mxCell>
        <mxCell id="zFS1pn2A8cmfrVWvFFyQ-66" value="" style="edgeStyle=elbowEdgeStyle;rounded=0;html=1;startArrow=none;startFill=0;jettySize=auto;orthogonalLoop=1;fontSize=18;elbow=vertical;entryX=0.75;entryY=0;entryDx=0;entryDy=0;" parent="jGIxOcGe_lyUybQSf8QV-7" edge="1">
          <mxGeometry relative="1" as="geometry">
            <Array as="points">
              <mxPoint x="99.95000000000005" y="20" />
            </Array>
            <mxPoint x="100" as="sourcePoint" />
            <mxPoint x="99.95000000000005" y="60" as="targetPoint" />
          </mxGeometry>
        </mxCell>
        <mxCell id="zFS1pn2A8cmfrVWvFFyQ-67" value="RST" style="text;html=1;align=center;verticalAlign=middle;resizable=1;points=[];autosize=1;strokeColor=none;fillColor=none;movable=1;rotatable=1;deletable=1;editable=1;locked=0;connectable=1;container=0;" parent="jGIxOcGe_lyUybQSf8QV-7" vertex="1">
          <mxGeometry x="99.95000000000005" y="10" width="30" height="10" as="geometry" />
        </mxCell>
        <mxCell id="jGIxOcGe_lyUybQSf8QV-17" value="" style="group" parent="1" vertex="1" connectable="0">
          <mxGeometry x="679.94" y="620" width="122.83" height="260.0000000000001" as="geometry" />
        </mxCell>
        <mxCell id="3a17f1ce550125da-2" value="Register&lt;div&gt;File&lt;/div&gt;" style="whiteSpace=wrap;html=1;shadow=1;fontSize=18;fillColor=#f5f5f5;strokeColor=#666666;container=0;" parent="jGIxOcGe_lyUybQSf8QV-17" vertex="1">
          <mxGeometry y="57.777777777777786" width="122.83000000000001" height="202.22222222222223" as="geometry" />
        </mxCell>
        <mxCell id="JqTOLJbfiFGYhZ1s0W8t-5" value="RA1" style="text;html=1;align=left;verticalAlign=middle;whiteSpace=wrap;rounded=0;container=0;" parent="jGIxOcGe_lyUybQSf8QV-17" vertex="1">
          <mxGeometry y="93.8888888888889" width="59.99782905627267" height="14.444444444444446" as="geometry" />
        </mxCell>
        <mxCell id="JqTOLJbfiFGYhZ1s0W8t-8" value="RA2" style="text;html=1;align=left;verticalAlign=middle;whiteSpace=wrap;rounded=0;container=0;" parent="jGIxOcGe_lyUybQSf8QV-17" vertex="1">
          <mxGeometry y="122.7777777777778" width="59.99782905627267" height="14.444444444444446" as="geometry" />
        </mxCell>
        <mxCell id="JqTOLJbfiFGYhZ1s0W8t-10" value="WA" style="text;html=1;align=left;verticalAlign=middle;whiteSpace=wrap;rounded=0;container=0;" parent="jGIxOcGe_lyUybQSf8QV-17" vertex="1">
          <mxGeometry y="158.8888888888889" width="43.35176470588236" height="28.888888888888893" as="geometry" />
        </mxCell>
        <mxCell id="JqTOLJbfiFGYhZ1s0W8t-13" value="RF_WD" style="text;html=1;align=center;verticalAlign=middle;whiteSpace=wrap;rounded=0;container=0;" parent="jGIxOcGe_lyUybQSf8QV-17" vertex="1">
          <mxGeometry x="1.68" y="199.9955555555556" width="39.99855270418178" height="14.444444444444446" as="geometry" />
        </mxCell>
        <mxCell id="JqTOLJbfiFGYhZ1s0W8t-16" value="RD1" style="text;html=1;align=right;verticalAlign=middle;whiteSpace=wrap;rounded=0;container=0;" parent="jGIxOcGe_lyUybQSf8QV-17" vertex="1">
          <mxGeometry x="101.15411764705887" y="93.8888888888889" width="21.67588235294118" height="14.444444444444446" as="geometry" />
        </mxCell>
        <mxCell id="JqTOLJbfiFGYhZ1s0W8t-17" value="RD2" style="text;html=1;align=right;verticalAlign=middle;whiteSpace=wrap;rounded=0;container=0;" parent="jGIxOcGe_lyUybQSf8QV-17" vertex="1">
          <mxGeometry x="90" y="110" width="32.83" height="20" as="geometry" />
        </mxCell>
        <mxCell id="zFS1pn2A8cmfrVWvFFyQ-1" value="RegWrite" style="text;html=1;align=center;verticalAlign=middle;whiteSpace=wrap;rounded=0;container=0;" parent="jGIxOcGe_lyUybQSf8QV-17" vertex="1">
          <mxGeometry x="50.57705882352938" y="57.777777777777786" width="36.1264705882353" height="14.444444444444446" as="geometry" />
        </mxCell>
        <mxCell id="jGIxOcGe_lyUybQSf8QV-18" value="" style="triangle;whiteSpace=wrap;html=1;rotation=90;container=0;" parent="jGIxOcGe_lyUybQSf8QV-17" vertex="1">
          <mxGeometry x="25" y="53.00000000000003" width="10" height="20" as="geometry" />
        </mxCell>
        <mxCell id="jGIxOcGe_lyUybQSf8QV-19" value="" style="edgeStyle=none;orthogonalLoop=1;jettySize=auto;html=1;rounded=0;" parent="jGIxOcGe_lyUybQSf8QV-17" edge="1">
          <mxGeometry width="100" relative="1" as="geometry">
            <mxPoint x="30.059999999999945" y="20" as="sourcePoint" />
            <mxPoint x="30" y="58.00000000000003" as="targetPoint" />
            <Array as="points" />
          </mxGeometry>
        </mxCell>
        <mxCell id="jGIxOcGe_lyUybQSf8QV-20" value="CLK" style="edgeLabel;html=1;align=center;verticalAlign=middle;resizable=0;points=[];container=0;" parent="jGIxOcGe_lyUybQSf8QV-19" vertex="1" connectable="0">
          <mxGeometry x="-0.0019" relative="1" as="geometry">
            <mxPoint y="-5" as="offset" />
          </mxGeometry>
        </mxCell>
        <mxCell id="jGIxOcGe_lyUybQSf8QV-45" value="" style="group" parent="1" vertex="1" connectable="0">
          <mxGeometry x="840" y="690" width="129.95000000000005" height="214" as="geometry" />
        </mxCell>
        <mxCell id="jGIxOcGe_lyUybQSf8QV-22" value="CSR&lt;br&gt;&lt;div&gt;Register&lt;/div&gt;&lt;div&gt;File&lt;/div&gt;" style="whiteSpace=wrap;html=1;shadow=1;fontSize=18;fillColor=#f5f5f5;strokeColor=#666666;container=0;" parent="jGIxOcGe_lyUybQSf8QV-45" vertex="1">
          <mxGeometry y="59.63" width="122.83" height="140.37" as="geometry" />
        </mxCell>
        <mxCell id="jGIxOcGe_lyUybQSf8QV-23" value="CSR_addr" style="text;html=1;align=left;verticalAlign=middle;whiteSpace=wrap;rounded=0;container=0;" parent="jGIxOcGe_lyUybQSf8QV-45" vertex="1">
          <mxGeometry y="160" width="60" height="20" as="geometry" />
        </mxCell>
        <mxCell id="jGIxOcGe_lyUybQSf8QV-24" value="CSR_WD" style="text;html=1;align=left;verticalAlign=middle;whiteSpace=wrap;rounded=0;container=0;" parent="jGIxOcGe_lyUybQSf8QV-45" vertex="1">
          <mxGeometry y="181.03" width="60" height="18.97" as="geometry" />
        </mxCell>
        <mxCell id="QWSBbdvPpNymhQ5q6x3e-5" value="CSRop" style="text;html=1;align=left;verticalAlign=middle;whiteSpace=wrap;rounded=0;container=0;" parent="jGIxOcGe_lyUybQSf8QV-45" vertex="1">
          <mxGeometry y="81.16999999999996" width="60" height="20" as="geometry" />
        </mxCell>
        <mxCell id="QWSBbdvPpNymhQ5q6x3e-6" value="CSR_enable" style="text;html=1;align=left;verticalAlign=middle;whiteSpace=wrap;rounded=0;container=0;" parent="jGIxOcGe_lyUybQSf8QV-45" vertex="1">
          <mxGeometry x="-3.197442310920451e-14" y="59.629999999999995" width="70" height="20" as="geometry" />
        </mxCell>
        <mxCell id="QWSBbdvPpNymhQ5q6x3e-10" value="" style="triangle;whiteSpace=wrap;html=1;rotation=0;container=0;" parent="jGIxOcGe_lyUybQSf8QV-45" vertex="1">
          <mxGeometry y="101.16999999999996" width="10" height="20" as="geometry" />
        </mxCell>
        <mxCell id="QWSBbdvPpNymhQ5q6x3e-15" value="CLK" style="text;html=1;align=left;verticalAlign=middle;whiteSpace=wrap;rounded=0;container=0;" parent="jGIxOcGe_lyUybQSf8QV-45" vertex="1">
          <mxGeometry x="10" y="101.16999999999996" width="30" height="20" as="geometry" />
        </mxCell>
        <mxCell id="QWSBbdvPpNymhQ5q6x3e-16" value="RST" style="text;html=1;align=left;verticalAlign=middle;whiteSpace=wrap;rounded=0;container=0;" parent="jGIxOcGe_lyUybQSf8QV-45" vertex="1">
          <mxGeometry y="121.16999999999996" width="30" height="20" as="geometry" />
        </mxCell>
        <mxCell id="7fQUANpCW0_2PBthWF22-1" value="CSR_RD" style="text;html=1;align=right;verticalAlign=middle;whiteSpace=wrap;rounded=0;container=0;" parent="jGIxOcGe_lyUybQSf8QV-45" vertex="1">
          <mxGeometry x="62.83000000000004" y="79.63" width="60" height="20" as="geometry" />
        </mxCell>
        <mxCell id="7fQUANpCW0_2PBthWF22-43" value="" style="shape=waypoint;sketch=0;size=6;pointerEvents=1;points=[];fillColor=none;resizable=0;rotatable=0;perimeter=centerPerimeter;snapToPoint=1;" parent="jGIxOcGe_lyUybQSf8QV-45" vertex="1">
          <mxGeometry x="-10" y="39.629999999999995" width="20" height="20" as="geometry" />
        </mxCell>
        <mxCell id="jGIxOcGe_lyUybQSf8QV-46" style="edgeStyle=orthogonalEdgeStyle;rounded=0;orthogonalLoop=1;jettySize=auto;html=1;entryX=0;entryY=0.5;entryDx=0;entryDy=0;jumpStyle=arc;" parent="1" source="jGIxOcGe_lyUybQSf8QV-4" target="QWSBbdvPpNymhQ5q6x3e-5" edge="1">
          <mxGeometry relative="1" as="geometry">
            <mxPoint x="840" y="777.0250000000001" as="targetPoint" />
          </mxGeometry>
        </mxCell>
        <mxCell id="QWSBbdvPpNymhQ5q6x3e-8" style="edgeStyle=orthogonalEdgeStyle;rounded=0;orthogonalLoop=1;jettySize=auto;html=1;entryX=0;entryY=0.5;entryDx=0;entryDy=0;exitX=1;exitY=0.5;exitDx=0;exitDy=0;jumpStyle=arc;" parent="1" source="QWSBbdvPpNymhQ5q6x3e-9" target="QWSBbdvPpNymhQ5q6x3e-6" edge="1">
          <mxGeometry relative="1" as="geometry">
            <mxPoint x="799.94" y="420.0103092783505" as="sourcePoint" />
            <Array as="points">
              <mxPoint x="840" y="420" />
              <mxPoint x="840" y="600" />
              <mxPoint x="830" y="600" />
              <mxPoint x="830" y="760" />
            </Array>
          </mxGeometry>
        </mxCell>
        <mxCell id="QWSBbdvPpNymhQ5q6x3e-11" value="" style="edgeStyle=none;orthogonalLoop=1;jettySize=auto;html=1;rounded=0;entryX=0;entryY=0.5;entryDx=0;entryDy=0;" parent="1" edge="1">
          <mxGeometry width="100" relative="1" as="geometry">
            <mxPoint x="820" y="800" as="sourcePoint" />
            <mxPoint x="840.0000000000001" y="800.17" as="targetPoint" />
            <Array as="points" />
          </mxGeometry>
        </mxCell>
        <mxCell id="QWSBbdvPpNymhQ5q6x3e-13" value="" style="edgeStyle=elbowEdgeStyle;rounded=0;html=1;startArrow=none;startFill=0;jettySize=auto;orthogonalLoop=1;fontSize=18;elbow=vertical;entryX=0;entryY=0.5;entryDx=0;entryDy=0;" parent="1" target="jGIxOcGe_lyUybQSf8QV-22" edge="1">
          <mxGeometry relative="1" as="geometry">
            <Array as="points">
              <mxPoint x="830" y="820" />
            </Array>
            <mxPoint x="820" y="820" as="sourcePoint" />
            <mxPoint x="949.94" y="750" as="targetPoint" />
          </mxGeometry>
        </mxCell>
        <mxCell id="QWSBbdvPpNymhQ5q6x3e-20" style="edgeStyle=orthogonalEdgeStyle;rounded=0;orthogonalLoop=1;jettySize=auto;html=1;entryX=0;entryY=0.5;entryDx=0;entryDy=0;exitX=0.5;exitY=0;exitDx=0;exitDy=0;" parent="1" source="QWSBbdvPpNymhQ5q6x3e-17" target="jGIxOcGe_lyUybQSf8QV-24" edge="1">
          <mxGeometry relative="1" as="geometry">
            <Array as="points">
              <mxPoint x="810" y="965" />
              <mxPoint x="810" y="881" />
            </Array>
          </mxGeometry>
        </mxCell>
        <mxCell id="QWSBbdvPpNymhQ5q6x3e-22" value="" style="group" parent="1" vertex="1" connectable="0">
          <mxGeometry x="760" y="930" width="20" height="70" as="geometry" />
        </mxCell>
        <mxCell id="QWSBbdvPpNymhQ5q6x3e-17" value="" style="shape=trapezoid;perimeter=trapezoidPerimeter;whiteSpace=wrap;html=1;fixedSize=1;shadow=1;strokeColor=#666666;align=center;verticalAlign=middle;fontFamily=Helvetica;fontSize=18;fontColor=default;fillColor=#f5f5f5;rotation=90;" parent="QWSBbdvPpNymhQ5q6x3e-22" vertex="1">
          <mxGeometry x="-23.32416895776036" y="24.500524973751368" width="66.65333666583318" height="20.99895005249739" as="geometry" />
        </mxCell>
        <mxCell id="QWSBbdvPpNymhQ5q6x3e-18" value="00" style="text;html=1;align=left;verticalAlign=middle;whiteSpace=wrap;rounded=0;" parent="QWSBbdvPpNymhQ5q6x3e-22" vertex="1">
          <mxGeometry y="10" width="20" height="20" as="geometry" />
        </mxCell>
        <mxCell id="QWSBbdvPpNymhQ5q6x3e-25" value="01" style="text;html=1;align=left;verticalAlign=middle;whiteSpace=wrap;rounded=0;" parent="QWSBbdvPpNymhQ5q6x3e-22" vertex="1">
          <mxGeometry y="40" width="20" height="20" as="geometry" />
        </mxCell>
        <mxCell id="QWSBbdvPpNymhQ5q6x3e-26" style="edgeStyle=orthogonalEdgeStyle;rounded=0;orthogonalLoop=1;jettySize=auto;html=1;entryX=0;entryY=0.5;entryDx=0;entryDy=0;jumpStyle=arc;" parent="1" source="F4LApp7SRapzV72RJLrX-85" target="QWSBbdvPpNymhQ5q6x3e-18" edge="1">
          <mxGeometry relative="1" as="geometry">
            <Array as="points">
              <mxPoint x="1440" y="1010" />
              <mxPoint x="740" y="1010" />
              <mxPoint x="740" y="950" />
            </Array>
          </mxGeometry>
        </mxCell>
        <mxCell id="QWSBbdvPpNymhQ5q6x3e-28" value="to CSR" style="edgeLabel;html=1;align=center;verticalAlign=middle;resizable=0;points=[];" parent="QWSBbdvPpNymhQ5q6x3e-26" vertex="1" connectable="0">
          <mxGeometry x="-0.4354" y="1" relative="1" as="geometry">
            <mxPoint x="9" as="offset" />
          </mxGeometry>
        </mxCell>
        <mxCell id="QWSBbdvPpNymhQ5q6x3e-31" style="edgeStyle=orthogonalEdgeStyle;rounded=0;orthogonalLoop=1;jettySize=auto;html=1;entryX=0;entryY=0.5;entryDx=0;entryDy=0;" parent="1" source="QWSBbdvPpNymhQ5q6x3e-30" target="jGIxOcGe_lyUybQSf8QV-23" edge="1">
          <mxGeometry relative="1" as="geometry">
            <Array as="points">
              <mxPoint x="580" y="720" />
              <mxPoint x="580" y="860" />
              <mxPoint x="620" y="860" />
              <mxPoint x="620" y="900" />
              <mxPoint x="820" y="900" />
              <mxPoint x="820" y="860" />
            </Array>
          </mxGeometry>
        </mxCell>
        <mxCell id="7fQUANpCW0_2PBthWF22-2" value="&lt;span style=&quot;font-size: 18px;&quot;&gt;11&lt;/span&gt;" style="text;html=1;align=left;verticalAlign=middle;whiteSpace=wrap;rounded=0;container=0;" parent="1" vertex="1">
          <mxGeometry x="1559.94" y="990" width="30" height="20" as="geometry" />
        </mxCell>
        <mxCell id="7fQUANpCW0_2PBthWF22-3" value="&lt;span style=&quot;font-size: 10px;&quot;&gt;PC+4&lt;/span&gt;" style="text;html=1;align=left;verticalAlign=middle;whiteSpace=wrap;rounded=0;container=0;" parent="1" vertex="1">
          <mxGeometry x="1589.94" y="990" width="30.06" height="20" as="geometry" />
        </mxCell>
        <mxCell id="7fQUANpCW0_2PBthWF22-16" style="edgeStyle=orthogonalEdgeStyle;rounded=0;orthogonalLoop=1;jettySize=auto;html=1;entryX=0.002;entryY=0.555;entryDx=0;entryDy=0;entryPerimeter=0;jumpStyle=arc;" parent="1" source="7fQUANpCW0_2PBthWF22-1" target="7fQUANpCW0_2PBthWF22-15" edge="1">
          <mxGeometry relative="1" as="geometry">
            <Array as="points">
              <mxPoint x="1000" y="780" />
              <mxPoint x="1000" y="690" />
              <mxPoint x="1160" y="690" />
              <mxPoint x="1160" y="700" />
            </Array>
          </mxGeometry>
        </mxCell>
        <mxCell id="7fQUANpCW0_2PBthWF22-17" value="" style="group" parent="1" vertex="1" connectable="0">
          <mxGeometry x="1269.9950000000001" y="727.005" width="20.00499999999988" height="66.67000000000007" as="geometry" />
        </mxCell>
        <mxCell id="7fQUANpCW0_2PBthWF22-18" value="" style="shape=trapezoid;perimeter=trapezoidPerimeter;whiteSpace=wrap;html=1;fixedSize=1;shadow=1;strokeColor=#666666;align=center;verticalAlign=middle;fontFamily=Helvetica;fontSize=18;fontColor=default;fillColor=#f5f5f5;rotation=90;" parent="7fQUANpCW0_2PBthWF22-17" vertex="1">
          <mxGeometry x="-23.335000000000036" y="23.335000000000036" width="66.67" height="20" as="geometry" />
        </mxCell>
        <mxCell id="7fQUANpCW0_2PBthWF22-19" value="&lt;font style=&quot;font-size: 9px;&quot;&gt;00&lt;/font&gt;" style="text;html=1;align=left;verticalAlign=middle;whiteSpace=wrap;rounded=0;" parent="7fQUANpCW0_2PBthWF22-17" vertex="1">
          <mxGeometry x="0.004999999999881766" y="-0.0049999999999954525" width="20" height="30" as="geometry" />
        </mxCell>
        <mxCell id="7fQUANpCW0_2PBthWF22-20" value="&lt;font style=&quot;font-size: 9px;&quot;&gt;01&lt;/font&gt;" style="text;html=1;align=left;verticalAlign=middle;whiteSpace=wrap;rounded=0;" parent="7fQUANpCW0_2PBthWF22-17" vertex="1">
          <mxGeometry x="0.004999999999881766" y="18.335000000000036" width="20" height="30" as="geometry" />
        </mxCell>
        <mxCell id="7fQUANpCW0_2PBthWF22-21" value="&lt;font style=&quot;font-size: 9px;&quot;&gt;10&lt;/font&gt;" style="text;html=1;align=left;verticalAlign=middle;whiteSpace=wrap;rounded=0;" parent="7fQUANpCW0_2PBthWF22-17" vertex="1">
          <mxGeometry x="0.004999999999881766" y="36.675000000000004" width="20" height="30" as="geometry" />
        </mxCell>
        <mxCell id="7fQUANpCW0_2PBthWF22-25" style="edgeStyle=orthogonalEdgeStyle;rounded=0;orthogonalLoop=1;jettySize=auto;html=1;entryX=0;entryY=0.5;entryDx=0;entryDy=0;" parent="1" source="7fQUANpCW0_2PBthWF22-45" target="7fQUANpCW0_2PBthWF22-21" edge="1">
          <mxGeometry relative="1" as="geometry">
            <Array as="points">
              <mxPoint x="1000" y="970" />
              <mxPoint x="1240" y="970" />
              <mxPoint x="1240" y="779" />
            </Array>
          </mxGeometry>
        </mxCell>
        <mxCell id="7fQUANpCW0_2PBthWF22-30" value="" style="shape=waypoint;sketch=0;size=6;pointerEvents=1;points=[];fillColor=none;resizable=0;rotatable=0;perimeter=centerPerimeter;snapToPoint=1;" parent="1" vertex="1">
          <mxGeometry x="129.94" y="630" width="20" height="20" as="geometry" />
        </mxCell>
        <mxCell id="7fQUANpCW0_2PBthWF22-33" value="" style="shape=waypoint;sketch=0;size=6;pointerEvents=1;points=[];fillColor=none;resizable=0;rotatable=0;perimeter=centerPerimeter;snapToPoint=1;" parent="1" vertex="1">
          <mxGeometry x="609.94" y="560" width="20" height="20" as="geometry" />
        </mxCell>
        <mxCell id="7fQUANpCW0_2PBthWF22-34" value="" style="shape=waypoint;sketch=0;size=6;pointerEvents=1;points=[];fillColor=none;resizable=0;rotatable=0;perimeter=centerPerimeter;snapToPoint=1;" parent="1" vertex="1">
          <mxGeometry x="619.94" y="560" width="20" height="20" as="geometry" />
        </mxCell>
        <mxCell id="7fQUANpCW0_2PBthWF22-39" value="" style="shape=waypoint;sketch=0;size=6;pointerEvents=1;points=[];fillColor=none;resizable=0;rotatable=0;perimeter=centerPerimeter;snapToPoint=1;" parent="1" vertex="1">
          <mxGeometry x="880" y="340" width="20" height="20" as="geometry" />
        </mxCell>
        <mxCell id="7fQUANpCW0_2PBthWF22-40" value="" style="shape=waypoint;sketch=0;size=6;pointerEvents=1;points=[];fillColor=none;resizable=0;rotatable=0;perimeter=centerPerimeter;snapToPoint=1;" parent="1" vertex="1">
          <mxGeometry x="860" y="360" width="20" height="20" as="geometry" />
        </mxCell>
        <mxCell id="7fQUANpCW0_2PBthWF22-45" value="" style="shape=waypoint;sketch=0;size=6;pointerEvents=1;points=[];fillColor=none;resizable=0;rotatable=0;perimeter=centerPerimeter;snapToPoint=1;" parent="1" vertex="1">
          <mxGeometry x="989.95" y="770" width="20" height="20" as="geometry" />
        </mxCell>
        <mxCell id="7fQUANpCW0_2PBthWF22-46" value="" style="shape=waypoint;sketch=0;size=6;pointerEvents=1;points=[];fillColor=none;resizable=0;rotatable=0;perimeter=centerPerimeter;snapToPoint=1;" parent="1" vertex="1">
          <mxGeometry x="1490" y="780" width="20" height="20" as="geometry" />
        </mxCell>
        <mxCell id="7fQUANpCW0_2PBthWF22-49" value="" style="shape=waypoint;sketch=0;size=6;pointerEvents=1;points=[];fillColor=none;resizable=0;rotatable=0;perimeter=centerPerimeter;snapToPoint=1;" parent="1" vertex="1">
          <mxGeometry x="1430" y="810" width="20" height="20" as="geometry" />
        </mxCell>
        <mxCell id="7fQUANpCW0_2PBthWF22-50" value="" style="shape=waypoint;sketch=0;size=6;pointerEvents=1;points=[];fillColor=none;resizable=0;rotatable=0;perimeter=centerPerimeter;snapToPoint=1;" parent="1" vertex="1">
          <mxGeometry x="509.94" y="970" width="20" height="20" as="geometry" />
        </mxCell>
        <mxCell id="7fQUANpCW0_2PBthWF22-51" value="" style="shape=waypoint;sketch=0;size=6;pointerEvents=1;points=[];fillColor=none;resizable=0;rotatable=0;perimeter=centerPerimeter;snapToPoint=1;" parent="1" vertex="1">
          <mxGeometry x="129.94" y="830" width="20" height="20" as="geometry" />
        </mxCell>
        <mxCell id="R418lhbPfAe_eccTZUrx-8" style="edgeStyle=orthogonalEdgeStyle;rounded=0;orthogonalLoop=1;jettySize=auto;html=1;entryX=0;entryY=0.5;entryDx=0;entryDy=0;jumpStyle=arc;jumpSize=10;" parent="1" source="R418lhbPfAe_eccTZUrx-7" target="F4LApp7SRapzV72RJLrX-89" edge="1">
          <mxGeometry relative="1" as="geometry" />
        </mxCell>
        <mxCell id="R418lhbPfAe_eccTZUrx-7" value="" style="shape=waypoint;sketch=0;size=6;pointerEvents=1;points=[];fillColor=none;resizable=0;rotatable=0;perimeter=centerPerimeter;snapToPoint=1;" parent="1" vertex="1">
          <mxGeometry x="1230" y="960" width="20" height="20" as="geometry" />
        </mxCell>
        <mxCell id="R418lhbPfAe_eccTZUrx-9" value="" style="shape=waypoint;sketch=0;size=6;pointerEvents=1;points=[];fillColor=none;resizable=0;rotatable=0;perimeter=centerPerimeter;snapToPoint=1;" parent="1" vertex="1">
          <mxGeometry x="609.94" y="520" width="20" height="20" as="geometry" />
        </mxCell>
        <mxCell id="7fQUANpCW0_2PBthWF22-37" value="" style="shape=waypoint;sketch=0;size=6;pointerEvents=1;points=[];fillColor=none;resizable=0;rotatable=0;perimeter=centerPerimeter;snapToPoint=1;" parent="1" vertex="1">
          <mxGeometry x="570" y="470" width="20" height="20" as="geometry" />
        </mxCell>
        <mxCell id="QWSBbdvPpNymhQ5q6x3e-24" style="edgeStyle=orthogonalEdgeStyle;rounded=0;orthogonalLoop=1;jettySize=auto;html=1;entryX=0;entryY=0.5;entryDx=0;entryDy=0;jumpStyle=arc;jumpSize=10;" parent="1" source="7fQUANpCW0_2PBthWF22-50" target="QWSBbdvPpNymhQ5q6x3e-25" edge="1">
          <mxGeometry relative="1" as="geometry">
            <mxPoint x="740" y="960" as="targetPoint" />
            <Array as="points" />
          </mxGeometry>
        </mxCell>
        <mxCell id="zFS1pn2A8cmfrVWvFFyQ-79" style="edgeStyle=orthogonalEdgeStyle;rounded=0;orthogonalLoop=1;jettySize=auto;html=1;entryX=0;entryY=0.5;entryDx=0;entryDy=0;jumpStyle=arc;jumpSize=10;" parent="1" source="-hvyRLRQOOJ3VwnVLbOB-11" target="q9rqpO51LhmBKndgSOn--34" edge="1">
          <mxGeometry relative="1" as="geometry">
            <Array as="points">
              <mxPoint x="640" y="570" />
              <mxPoint x="640" y="550" />
              <mxPoint x="940" y="550" />
              <mxPoint x="940" y="340" />
            </Array>
          </mxGeometry>
        </mxCell>
        <mxCell id="jGIxOcGe_lyUybQSf8QV-2" style="edgeStyle=orthogonalEdgeStyle;rounded=0;orthogonalLoop=1;jettySize=auto;html=1;entryX=0;entryY=0.5;entryDx=0;entryDy=0;" parent="1" source="7fQUANpCW0_2PBthWF22-33" target="jGIxOcGe_lyUybQSf8QV-1" edge="1">
          <mxGeometry relative="1" as="geometry">
            <Array as="points">
              <mxPoint x="620" y="266" />
            </Array>
          </mxGeometry>
        </mxCell>
        <mxCell id="zFS1pn2A8cmfrVWvFFyQ-9" style="edgeStyle=orthogonalEdgeStyle;rounded=0;orthogonalLoop=1;jettySize=auto;html=1;entryX=0;entryY=0.5;entryDx=0;entryDy=0;jumpStyle=arc;jumpSize=10;" parent="1" source="7fQUANpCW0_2PBthWF22-34" target="-hvyRLRQOOJ3VwnVLbOB-64" edge="1">
          <mxGeometry relative="1" as="geometry">
            <mxPoint x="989.94" y="530" as="targetPoint" />
            <Array as="points">
              <mxPoint x="630" y="540" />
            </Array>
          </mxGeometry>
        </mxCell>
        <mxCell id="q9rqpO51LhmBKndgSOn--25" style="edgeStyle=orthogonalEdgeStyle;rounded=0;orthogonalLoop=1;jettySize=auto;html=1;entryX=0;entryY=0.5;entryDx=0;entryDy=0;jumpStyle=arc;" parent="1" source="-hvyRLRQOOJ3VwnVLbOB-59" target="-hvyRLRQOOJ3VwnVLbOB-61" edge="1">
          <mxGeometry relative="1" as="geometry">
            <Array as="points">
              <mxPoint x="960" y="250" />
              <mxPoint x="960" y="517" />
            </Array>
            <mxPoint x="989.94" y="500" as="targetPoint" />
          </mxGeometry>
        </mxCell>
        <mxCell id="zFS1pn2A8cmfrVWvFFyQ-45" style="edgeStyle=orthogonalEdgeStyle;rounded=0;orthogonalLoop=1;jettySize=auto;html=1;entryX=0.002;entryY=0.445;entryDx=0;entryDy=0;entryPerimeter=0;jumpStyle=arc;" parent="1" source="JqTOLJbfiFGYhZ1s0W8t-16" target="7fQUANpCW0_2PBthWF22-13" edge="1">
          <mxGeometry relative="1" as="geometry">
            <Array as="points">
              <mxPoint x="920" y="721" />
              <mxPoint x="920" y="680" />
              <mxPoint x="1160" y="680" />
              <mxPoint x="1160" y="660" />
            </Array>
            <mxPoint x="1190" y="660" as="targetPoint" />
          </mxGeometry>
        </mxCell>
        <mxCell id="7fQUANpCW0_2PBthWF22-27" value="ALUsrcA" style="edgeLabel;html=1;align=center;verticalAlign=middle;resizable=0;points=[];" parent="zFS1pn2A8cmfrVWvFFyQ-45" vertex="1" connectable="0">
          <mxGeometry x="-0.7584" relative="1" as="geometry">
            <mxPoint as="offset" />
          </mxGeometry>
        </mxCell>
        <mxCell id="zFS1pn2A8cmfrVWvFFyQ-36" style="edgeStyle=orthogonalEdgeStyle;rounded=0;orthogonalLoop=1;jettySize=auto;html=1;exitX=0.5;exitY=1;exitDx=0;exitDy=0;entryX=0;entryY=0.5;entryDx=0;entryDy=0;jumpStyle=arc;jumpSize=6;" parent="1" source="laC3dYbV331lfGwgBf-x-17" target="7fQUANpCW0_2PBthWF22-20" edge="1">
          <mxGeometry relative="1" as="geometry">
            <Array as="points">
              <mxPoint x="520" y="1040" />
              <mxPoint x="1220" y="1040" />
              <mxPoint x="1220" y="760" />
              <mxPoint x="1270" y="760" />
            </Array>
            <mxPoint x="1270" y="780" as="targetPoint" />
          </mxGeometry>
        </mxCell>
        <mxCell id="s6hKSkpy---ewfnxM8lV-34" style="edgeStyle=orthogonalEdgeStyle;rounded=0;orthogonalLoop=1;jettySize=auto;html=1;entryX=0;entryY=0.5;entryDx=0;entryDy=0;exitX=1;exitY=0.5;exitDx=0;exitDy=0;jumpStyle=arc;jumpSize=6;" parent="1" source="s6hKSkpy---ewfnxM8lV-31" target="7fQUANpCW0_2PBthWF22-2" edge="1">
          <mxGeometry relative="1" as="geometry">
            <Array as="points">
              <mxPoint x="360" y="840" />
              <mxPoint x="360" y="1030" />
              <mxPoint x="1520" y="1030" />
              <mxPoint x="1520" y="1000" />
            </Array>
          </mxGeometry>
        </mxCell>
        <mxCell id="zFS1pn2A8cmfrVWvFFyQ-28" style="edgeStyle=orthogonalEdgeStyle;rounded=0;orthogonalLoop=1;jettySize=auto;html=1;entryX=0;entryY=0.5;entryDx=0;entryDy=0;jumpStyle=arc;" parent="1" source="0RyyWnerKbfPe0gcl8zv-8" edge="1">
          <mxGeometry relative="1" as="geometry">
            <Array as="points">
              <mxPoint x="140" y="640" />
              <mxPoint x="140" y="1080" />
              <mxPoint x="1180" y="1080" />
              <mxPoint x="1180" y="680" />
            </Array>
            <mxPoint x="1199.95" y="680" as="targetPoint" />
          </mxGeometry>
        </mxCell>
        <mxCell id="zFS1pn2A8cmfrVWvFFyQ-76" value="to ALUsrcA" style="edgeLabel;html=1;align=center;verticalAlign=middle;resizable=0;points=[];" parent="zFS1pn2A8cmfrVWvFFyQ-28" vertex="1" connectable="0">
          <mxGeometry x="-0.7499" y="-3" relative="1" as="geometry">
            <mxPoint as="offset" />
          </mxGeometry>
        </mxCell>
        <mxCell id="q9rqpO51LhmBKndgSOn--12" style="edgeStyle=orthogonalEdgeStyle;rounded=0;orthogonalLoop=1;jettySize=auto;html=1;entryX=0;entryY=0.5;entryDx=0;entryDy=0;jumpStyle=arc;" parent="1" source="q9rqpO51LhmBKndgSOn--2" target="q9rqpO51LhmBKndgSOn--5" edge="1">
          <mxGeometry relative="1" as="geometry" />
        </mxCell>
        <mxCell id="zFS1pn2A8cmfrVWvFFyQ-10" style="edgeStyle=orthogonalEdgeStyle;rounded=0;orthogonalLoop=1;jettySize=auto;html=1;entryX=0;entryY=0.5;entryDx=0;entryDy=0;jumpStyle=arc;jumpSize=10;" parent="1" source="-hvyRLRQOOJ3VwnVLbOB-12" target="-hvyRLRQOOJ3VwnVLbOB-65" edge="1">
          <mxGeometry relative="1" as="geometry">
            <Array as="points">
              <mxPoint x="680" y="590" />
              <mxPoint x="680" y="559" />
            </Array>
          </mxGeometry>
        </mxCell>
        <mxCell id="BtpwSkirMHUlfhhFMKDF-14" style="edgeStyle=orthogonalEdgeStyle;rounded=0;orthogonalLoop=1;jettySize=auto;html=1;entryX=0;entryY=0.5;entryDx=0;entryDy=0;jumpStyle=arc;jumpSize=10;" parent="1" source="R418lhbPfAe_eccTZUrx-9" target="BtpwSkirMHUlfhhFMKDF-6" edge="1">
          <mxGeometry relative="1" as="geometry">
            <Array as="points">
              <mxPoint x="920" y="530" />
              <mxPoint x="920" y="460" />
              <mxPoint x="1520" y="460" />
              <mxPoint x="1520" y="260" />
            </Array>
          </mxGeometry>
        </mxCell>
        <mxCell id="s6hKSkpy---ewfnxM8lV-23" style="edgeStyle=orthogonalEdgeStyle;rounded=0;orthogonalLoop=1;jettySize=auto;html=1;entryX=0;entryY=0.5;entryDx=0;entryDy=0;jumpStyle=arc;jumpSize=10;" parent="1" source="F4LApp7SRapzV72RJLrX-85" target="jQQxH6LwXFBK_Qau7PEY-27" edge="1">
          <mxGeometry relative="1" as="geometry">
            <Array as="points">
              <mxPoint x="1499.94" y="790" />
              <mxPoint x="1499.94" y="480" />
              <mxPoint x="149.94" y="480" />
              <mxPoint x="149.94" y="380" />
            </Array>
            <mxPoint x="170.94" y="410" as="targetPoint" />
          </mxGeometry>
        </mxCell>
        <mxCell id="R418lhbPfAe_eccTZUrx-2" style="edgeStyle=orthogonalEdgeStyle;rounded=0;orthogonalLoop=1;jettySize=auto;html=1;entryX=1;entryY=0.5;entryDx=0;entryDy=0;" parent="1" source="7fQUANpCW0_2PBthWF22-37" target="wTCf3CvT70fc92s2WAtQ-11" edge="1">
          <mxGeometry relative="1" as="geometry">
            <Array as="points">
              <mxPoint x="580" y="440" />
            </Array>
          </mxGeometry>
        </mxCell>
        <mxCell id="laC3dYbV331lfGwgBf-x-13" style="edgeStyle=orthogonalEdgeStyle;rounded=0;orthogonalLoop=1;jettySize=auto;html=1;entryX=0.25;entryY=0;entryDx=0;entryDy=0;exitX=1;exitY=0.5;exitDx=0;exitDy=0;jumpStyle=arc;" parent="1" source="JqTOLJbfiFGYhZ1s0W8t-17" edge="1">
          <mxGeometry relative="1" as="geometry">
            <Array as="points" />
            <mxPoint x="807.7700000000001" y="740.004048582996" as="sourcePoint" />
            <mxPoint x="1269.9399999999998" y="740" as="targetPoint" />
          </mxGeometry>
        </mxCell>
        <mxCell id="7fQUANpCW0_2PBthWF22-26" value="ALUsrcB" style="edgeLabel;html=1;align=center;verticalAlign=middle;resizable=0;points=[];" parent="laC3dYbV331lfGwgBf-x-13" vertex="1" connectable="0">
          <mxGeometry x="-0.6153" relative="1" as="geometry">
            <mxPoint as="offset" />
          </mxGeometry>
        </mxCell>
        <mxCell id="BtpwSkirMHUlfhhFMKDF-16" style="edgeStyle=orthogonalEdgeStyle;rounded=0;orthogonalLoop=1;jettySize=auto;html=1;entryX=0;entryY=0.5;entryDx=0;entryDy=0;jumpStyle=arc;" parent="1" source="7fQUANpCW0_2PBthWF22-43" target="BtpwSkirMHUlfhhFMKDF-8" edge="1">
          <mxGeometry relative="1" as="geometry">
            <Array as="points">
              <mxPoint x="840" y="730" />
              <mxPoint x="1240" y="730" />
              <mxPoint x="1240" y="560" />
              <mxPoint x="1480" y="560" />
              <mxPoint x="1480" y="240" />
              <mxPoint x="1520" y="240" />
              <mxPoint x="1520" y="203" />
            </Array>
            <mxPoint x="770" y="930" as="sourcePoint" />
          </mxGeometry>
        </mxCell>
        <mxCell id="BtpwSkirMHUlfhhFMKDF-17" value="BE_Logic" style="edgeLabel;html=1;align=center;verticalAlign=middle;resizable=0;points=[];" parent="BtpwSkirMHUlfhhFMKDF-16" vertex="1" connectable="0">
          <mxGeometry x="-0.9104" y="-2" relative="1" as="geometry">
            <mxPoint x="76" y="-2" as="offset" />
          </mxGeometry>
        </mxCell>
        <mxCell id="laC3dYbV331lfGwgBf-x-34" style="edgeStyle=orthogonalEdgeStyle;rounded=0;orthogonalLoop=1;jettySize=auto;html=1;entryX=0.5;entryY=0.433;entryDx=0;entryDy=0;entryPerimeter=0;exitX=1;exitY=0.5;exitDx=0;exitDy=0;jumpStyle=arc;" parent="1" source="laC3dYbV331lfGwgBf-x-33" edge="1">
          <mxGeometry relative="1" as="geometry">
            <mxPoint x="799.94" y="306.25101214574903" as="sourcePoint" />
            <mxPoint x="1280" y="736.99" as="targetPoint" />
          </mxGeometry>
        </mxCell>
        <mxCell id="BtpwSkirMHUlfhhFMKDF-19" style="edgeStyle=orthogonalEdgeStyle;rounded=0;orthogonalLoop=1;jettySize=auto;html=1;entryX=0;entryY=0.5;entryDx=0;entryDy=0;jumpStyle=arc;" parent="1" source="F4LApp7SRapzV72RJLrX-44" target="BtpwSkirMHUlfhhFMKDF-7" edge="1">
          <mxGeometry relative="1" as="geometry">
            <Array as="points">
              <mxPoint x="1319.94" y="920" />
              <mxPoint x="1319.94" y="150" />
            </Array>
          </mxGeometry>
        </mxCell>
        <mxCell id="zFS1pn2A8cmfrVWvFFyQ-17" style="edgeStyle=orthogonalEdgeStyle;rounded=0;orthogonalLoop=1;jettySize=auto;html=1;entryX=0;entryY=0.5;entryDx=0;entryDy=0;jumpStyle=arc;" parent="1" source="F4LApp7SRapzV72RJLrX-92" target="JqTOLJbfiFGYhZ1s0W8t-13" edge="1">
          <mxGeometry relative="1" as="geometry">
            <Array as="points">
              <mxPoint x="1680" y="950" />
              <mxPoint x="1680" y="1060" />
              <mxPoint x="660" y="1060" />
              <mxPoint x="660" y="827" />
            </Array>
          </mxGeometry>
        </mxCell>
        <mxCell id="LOUQa-txSwxVZWsO9tRF-3" style="edgeStyle=orthogonalEdgeStyle;rounded=0;orthogonalLoop=1;jettySize=auto;html=1;entryX=0;entryY=0.5;entryDx=0;entryDy=0;exitX=1;exitY=0.5;exitDx=0;exitDy=0;jumpStyle=arc;" edge="1" parent="1" source="LOUQa-txSwxVZWsO9tRF-1" target="QWSBbdvPpNymhQ5q6x3e-17">
          <mxGeometry relative="1" as="geometry">
            <Array as="points">
              <mxPoint x="810" y="331" />
              <mxPoint x="810" y="620" />
              <mxPoint x="610" y="620" />
              <mxPoint x="610" y="920" />
              <mxPoint x="770" y="920" />
            </Array>
          </mxGeometry>
        </mxCell>
      </root>
    </mxGraphModel>
  </diagram>
</mxfile>
